<?xml version="1.0" encoding="UTF-8"?><svg id="icons" xmlns="http://www.w3.org/2000/svg" viewBox="0 0 194.4 55.41"><defs><style>.cls-1{opacity:.8;}.cls-2{fill-rule:evenodd;}.cls-2,.cls-3{fill:#00ad7b;stroke-width:0px;}</style></defs><path class="cls-3" d="M101.97,40.17c2.86,0,5.62-.95,8.11-2.76l3.07,4.19c-3.29,2.33-7.15,3.6-11.29,3.6-11.08,0-19.82-7.58-19.82-19.18,0-10.92,8.96-19.18,19.93-19.18,3.76,0,7.21,1.11,10.28,3.07l-2.7,4.35c-2.23-1.43-4.82-2.38-7.58-2.38-8.05,0-13.88,5.99-13.88,14.15,0,8.64,5.62,14.15,13.88,14.15Z"/><path class="cls-3" d="M124.44,21.89c2.01-3.02,5.19-4.77,8.58-4.77s6.04,1.27,7.63,3.39c1.85,2.54,2.38,6.09,2.38,10.12v13.94h-5.46v-13.46c0-2.44-.11-5.14-1.27-7-.79-1.27-2.23-2.07-4.4-2.07-2.86,0-5.72,1.96-7.47,4.77v17.75h-5.46V4.83h5.46v17.06Z"/><path class="cls-3" d="M167.32,44.57l-.16-2.7c-2.07,2.38-4.56,3.34-7.84,3.34-4.98,0-9.54-2.54-9.54-8.27,0-6.73,6.04-8.85,11.87-8.85,1.38,0,3.07.16,5.25.58v-.79c0-3.92-1.8-6.2-6.09-6.2-3.07,0-6.2,1.17-8.43,2.38l-1.54-4.4c2.92-1.38,7.05-2.54,10.81-2.54,7.68,0,10.71,4.24,10.71,11.18v16.27h-5.03ZM166.9,32.49c-1.86-.37-3.23-.48-4.56-.48-3.13,0-7.21.85-7.21,4.66,0,3.02,2.33,4.19,4.98,4.19s4.77-1.27,6.78-2.97v-5.41Z"/><path class="cls-3" d="M186.35,22.47v11.66c0,.69,0,1.32.05,2.12.16,2.54,1.01,4.03,3.39,4.03,1.17,0,2.17-.32,3.02-.74l1.59,4.29c-1.43.79-3.5,1.27-5.35,1.27-3.87,0-6.31-1.8-7.37-4.56-.58-1.48-.79-3.34-.79-5.3v-12.77h-3.5v-4.72h3.5l.26-6.31h5.19v6.31h7.37v4.72h-7.37Z"/><g class="cls-1"><path class="cls-2" d="M3.69,0C1.65,0,0,1.66,0,3.69v36.94c0,2.04,1.65,3.69,3.69,3.69h13.25l10,10c1.44,1.44,3.78,1.44,5.22,0l10-10h13.25c2.04,0,3.69-1.65,3.69-3.69V3.69c0-2.04-1.65-3.69-3.69-3.69H3.69ZM16.62,18.47c2.04,0,3.69,1.65,3.69,3.69s-1.65,3.69-3.69,3.69-3.69-1.65-3.69-3.69,1.65-3.69,3.69-3.69ZM29.55,18.47c2.04,0,3.69,1.65,3.69,3.69s-1.65,3.69-3.69,3.69-3.69-1.65-3.69-3.69,1.65-3.69,3.69-3.69ZM42.48,18.47c2.04,0,3.69,1.65,3.69,3.69s-1.65,3.69-3.69,3.69-3.69-1.65-3.69-3.69,1.65-3.69,3.69-3.69Z"/></g></svg>