<?xml version="1.0" encoding="UTF-8"?><svg id="icons" xmlns="http://www.w3.org/2000/svg" viewBox="0 0 381.55 316.88"><defs><style>.cls-1{fill:#00d684;stroke-width:0px;}</style></defs><path class="cls-1" d="M237.95.29c.03-.07.13-.11.28-.29-.31,1.18-.57,2.22-.78,3.35-1.1,5.35-.64,10.67.46,16.01,1.01,4.97,2.31,9.82,3.39,14.82,1.51,6.97,2.03,13.95.8,21.04-.42,2.44-1.04,4.8-1.6,7.18.17-.01.34-.03.53-.11,8.74-3.07,17.63-3.48,26.68-1.45,4.63,1.06,9.27,2.28,13.94,3.43,5.19,1.28,10.4,2.32,15.75,1.8,2.02-.16,3.92-.62,5.83-.91-6.83,3.19-11.59,8.69-15.74,14.93-2.81,4.33-5.48,8.71-8.29,13.04-4.54,6.81-10.28,12.32-17.54,16.16-.32.2-.62.32-.91.45s-.52.28-.94.52c.32.21.53.3.74.38,7.25,3.25,13.01,8.36,17.68,14.57,3.05,4.17,5.7,8.5,8.52,12.82,2.86,4.42,5.8,8.87,9.72,12.49,2.35,2.25,4.97,4.05,7.9,5.48-2.88-.75-5.74-1.34-8.66-1.38-5.28-.26-10.32.72-15.38,1.94-5.3,1.2-10.55,2.5-15.91,3.44-6.39,1.09-12.82.85-19.18-.57-1.18-.31-2.26-.67-3.44-.98-.35-.14-.77-.31-1.29-.44.28.93.58,1.79.82,2.61,2.28,7.28,2.53,14.72,1.23,22.19-.65,4.22-1.67,8.38-2.46,12.54-1.21,5.63-2.05,11.32-1.52,17.08.2,2.94.86,5.73,1.89,8.43l-.14-.06c-2.51-4.68-6.22-8.22-10.62-11.06-3.73-2.48-7.64-4.72-11.48-6.92-6.85-3.83-13.4-8.02-18.46-14.06-2.32-2.73-4.32-5.66-5.96-8.85-.13-.3-.35-.55-.52-.94-.71,1.35-1.33,2.48-2.05,3.66-2.8,4.9-6.53,9.1-10.86,12.74-3.97,3.37-8.33,6.09-12.77,8.79-3.97,2.56-7.94,5.11-11.51,8.31-3.2,2.87-5.85,6.2-7.84,10.12.13-.52.26-1.04.43-1.46.16-.59.28-1.11.34-1.66.98-3.84,1.01-7.75.56-11.68-.67-5.41-1.97-10.66-3.27-15.92-1.6-6.93-2.54-13.91-1.95-21.01.36-3.52,1.01-6.93,2.17-10.21.06-.14.11-.28.13-.52-.27.06-.44.07-.53.11-9.21,3.21-18.45,3.47-27.82,1.24-4.08-1-8.21-2.09-12.33-3.19-5.71-1.41-11.49-2.44-17.43-1.66-1.64.23-3.18.59-4.78.92,6.93-3.23,11.61-8.76,15.71-14.86,3.25-4.8,6.31-9.76,9.6-14.47,4.68-6.75,10.68-11.91,18.1-15.52.13-.11.23-.15.42-.24-.18-.16-.22-.25-.29-.28-9.04-4.06-15.46-10.98-20.66-19.11-2.71-4.19-5.32-8.43-8.03-12.62-2.67-4.1-5.81-7.81-9.88-10.68-1.22-.82-2.54-1.6-3.43-2.2,1.82.33,4,.8,6.29.99,4.93.52,9.68-.33,14.47-1.49,4.86-1.13,9.74-2.51,14.57-3.57,6.3-1.45,12.64-1.82,19.01-.64,2.13.37,4.29,1.08,6.37,1.59.31.04.59.16.73.21-.6-2.36-1.32-4.61-1.77-6.91-1.48-6.63-1.26-13.23-.06-19.84.93-5.33,2.1-10.65,3.06-16.05.9-5.26,1.26-10.58.06-15.88-.32-1.43-.76-2.75-1.18-4.15.77,1.13,1.44,2.29,2.31,3.38,2.59,3.49,5.82,6.18,9.46,8.47,3.5,2.23,7.02,4.22,10.64,6.17,7.39,4.13,14.38,8.83,19.43,15.68,1.68,2.31,3.1,4.84,4.58,7.23.13.3.28.52.47.84.59-1.07,1.09-2.09,1.68-3.15,2.73-4.93,6.39-9.16,10.67-12.89,4.06-3.58,8.71-6.43,13.23-9.33,4.29-2.75,8.58-5.5,12.26-9.15,2.61-2.62,4.75-5.5,6.32-8.78ZM227.77,28.31c-.07-.44-.24-.83-.42-1.39-3.71,2.33-7.37,4.52-10.88,6.94-5.21,3.6-9.46,8.08-12.77,13.43-3.28,5.28-5.26,11-6.76,16.92-1.4,5.88-2.32,11.79-2.93,17.74-.09,1.02-.2,2.12-.36,3.12-.24-.83-.3-1.67-.4-2.44-1.2-9.13-2.8-18.09-5.8-26.81-2.85-8.08-7.43-14.91-14.32-20.06-3.22-2.52-6.81-4.54-10.42-6.49-1.14-.62-2.27-1.24-3.48-1.89l-.31.77c-.73,2.81-1.35,5.57-2.05,8.31-1.25,5.12-1.89,10.33-1.57,15.59.48,7.7,3.11,14.71,6.79,21.34,3.53,6.4,7.78,12.44,12.21,18.23.41.41.71.86.98,1.21-3.78-2.75-7.58-5.67-11.55-8.34-5.1-3.53-10.47-6.59-16.33-8.64-7.26-2.61-14.68-3.24-22.21-1.55-4.57,1.01-9.04,2.38-13.52,3.59-.17.01-.2.08-.39.17,1.73,2.98,3.42,5.87,5.11,8.75,6.49,11.18,16.13,18.01,28.6,21.26,5.54,1.42,11.18,2.4,16.87,3.06,1.95.22,3.93.36,5.95.61-1.43.32-2.78.43-4.12.7-8.11,1.29-16.11,2.95-23.75,5.9-9.71,3.66-17.47,9.74-23.01,18.59-1.92,3.14-3.8,6.38-5.68,9.61l-.72,1.18.42.17c3.46.91,6.9,1.89,10.39,2.73,5.01,1.13,10.09,1.47,15.23.85,6.04-.82,11.62-3.13,16.95-6.03,6.72-3.73,12.95-8.23,18.94-12.98.96-.75,1.94-1.58,2.9-2.33l.04.1c-.16.18-.34.43-.49.62-.58.83-1.2,1.55-1.78,2.38-5.15,6.89-10.09,13.87-13.6,21.74-2.72,5.92-4.16,12.1-4.28,18.66,0,5.63,1.16,11.07,2.6,16.38.49,1.83,1,3.58,1.48,5.41.3-.13.52-.28.72-.36,2.81-1.72,5.6-3.36,8.41-5.08,10.5-6.6,17.17-16.06,20.5-27.93,1.62-5.62,2.65-11.41,3.44-17.2.27-2.09.48-4.21.74-6.47.03-.48.13-.93.16-1.4.37,2.51.69,4.76,1.07,7.04,1.21,7.5,2.62,14.92,5.12,22.05,2.61,7.66,6.77,14.32,13.06,19.55,4.1,3.37,8.71,5.89,13.3,8.47.74.38,1.49.76,2.23,1.15l.2-.49c.77-3.11,1.54-6.23,2.21-9.3,1.1-4.53,1.79-9.06,1.62-13.7-.26-7.04-2.41-13.61-5.52-19.84-3.5-6.88-7.87-13.21-12.57-19.35-.75-.96-1.48-1.98-2.24-2.94.35.14.57.4.9.61,6.55,5.18,13.36,10.13,20.89,13.9,6.43,3.25,13.17,5.16,20.41,5.39,5.31.19,10.45-.83,15.47-2.15,2.66-.72,5.31-1.44,7.97-2.16-.15-.23-.24-.42-.32-.62-1.52-2.49-3.11-5.01-4.61-7.57-6.52-11.11-16.08-18.32-28.44-21.85-6.14-1.75-12.44-2.91-18.75-3.66-1.95-.22-3.97-.46-5.92-.68,1.94-.36,3.75-.6,5.69-.96,7.16-1.18,14.2-2.66,21.04-5.04,10.87-3.68,19.29-10.39,25.11-20.36,1.75-3.13,3.55-6.15,5.34-9.18.06-.14.04-.31.07-.38-.14-.06-.18-.16-.25-.18-3.32-.85-6.72-1.74-10.07-2.52-11.07-2.68-21.62-.99-31.57,4.45-6.08,3.33-11.81,7.22-17.31,11.36-2.08,1.52-4.1,3.07-6.11,4.63-.04-.1-.01-.17-.01-.17,4.29-5.36,8.32-10.91,11.89-16.72,2.73-4.53,5.03-9.22,6.49-14.26,1.79-6.05,2.32-12.19,1.55-18.37-.64-5.07-2.11-9.91-3.49-14.78Z"/><path class="cls-1" d="M193.47,18.94c.15.63.33,1.19.44,1.73.78,2.92,2.11,5.67,3.61,8.23.27.35.32.62.01.98-2.27,2.59-3.63,5.55-3.86,8.96l-.06.14-.37-2.11c-.51-2.57-1.71-4.85-3.43-6.85-.52-.54-.5-.77-.15-1.45,1.6-2.94,3.05-5.94,3.67-9.28l.14-.35Z"/><path class="cls-1" d="M257.21,45.26c.13-.11.32-.2.65-.39-2.05,3.25-3.24,6.6-4.22,10.04-.01.24-.3.53-.54.52-3.44.24-6.53,1.44-9.17,3.72-.03.07-.1.04-.17.01.61-.9,1.21-1.79,1.75-2.72,1.17-1.89,1.54-4.02,1.71-6.24.06-.55.24-.8.87-.95,3.26-.8,6.31-2.1,9.11-3.98Z"/><path class="cls-1" d="M211.25,63.96c1.13-1.58,2.15-3.29,2.89-4.54-.82,5.87-1.71,12.11-2.63,18.43-.59,4.08-1.35,8.18-3.07,12.05-.11.28-.25.63-.44.88-2.05,4.47-5,8.34-8.38,11.86-1.28,1.36-2.78,2.63-4.25,4.07-.06-.27-.14-.46-.15-.63-.08-1.42-.19-2.77-.2-4.16-.1-4.2.25-8.3,1.18-12.41.21-1.14.57-2.22.92-3.3,1.19-3.35,2.87-6.5,4.95-9.42,3.05-4.31,6.14-8.53,9.19-12.84Z"/><path class="cls-1" d="M241.38,89.51c1.07-.22,2.16-.51,3.23-.73-2.41,1.72-4.84,3.51-7.31,5.37-3.62,2.7-7.22,5.56-10.84,8.26-6.39,4.92-13.73,6.93-21.62,7.09-2.3.05-4.58.03-6.92-.02-.04-.1-.08-.2-.06-.27.8-.98,1.61-1.96,2.41-2.94.47-.55.97-.99,1.51-1.51,3.54-3.71,7.49-6.84,12.2-9.01,3.53-1.67,7.3-2.52,11.01-3.22,5.45-.98,10.9-1.96,16.38-3Z"/><path class="cls-1" d="M173.08,62.16c-.1-.77-.33-1.6-.58-2.6,1.45,2.05,2.7,4.03,4.04,5.95,2.91,4.11,5.88,8.25,8.79,12.36,5.18,7.15,6.93,15.36,6.67,24.06-.03.07.01.17-.01.24-.02,1.46-.14,2.96-.18,4.49-.07-.03-.17.01-.27.06-1.43-1.31-2.95-2.58-4.28-3.93-3.88-3.93-7.17-8.28-9.15-13.48-1.38-3.66-2.02-7.5-2.57-11.4-.82-5.23-1.65-10.45-2.44-15.75Z"/><path class="cls-1" d="M273.51,106.24c.38-.34.65-.39,1.11-.12,2.52,1.43,5.07,2.78,7.92,3.61.66.18,1.42.33,2.15.54-.1.04-.2.08-.23.15-3.41.58-6.61,1.82-9.63,3.45-.45.31-.76.26-1.19-.07-2.76-2.26-5.87-3.43-9.65-3.57,1.4-.25,2.54-.44,3.71-.7,2.19-.58,4.13-1.75,5.81-3.28Z"/><path class="cls-1" d="M138.8,51.33c.62.09.91.37.97,1.04.27,3.37,1.62,6.28,3.86,8.82.11.13.22.25.27.35-1.01-.73-2.16-1.52-3.26-2.22-1.92-1.1-4.02-1.54-6.14-1.75-.55-.06-.8-.24-1.01-.73-1.08-3.37-2.42-6.52-4.52-9.41,3.1,1.82,6.35,3.05,9.84,3.9Z"/><path class="cls-1" d="M218.05,114.74c2.65.91,5.17,2.33,7.54,3.94,4.61,3.33,9.22,6.66,13.85,9.92,1.37,1.04,2.93,1.84,4.36,2.74.11.13.18.16.25.18-7.55-1.09-15-2.23-22.52-3.39-6.9-1.08-12.79-4.27-17.91-8.95-2.09-1.9-3.92-4.03-5.99-6.17.44-.07.63-.15.8-.17,2.12-.2,4.28-.31,6.49-.31,2.92.04,5.92.27,8.83.96,1.52.29,2.97.71,4.31,1.25Z"/><path class="cls-1" d="M161.22,93.74c4.18.55,8.34,1.17,12.25,2.99,4.4,2.02,8.23,4.87,11.68,8.23.41.41.81.82,1.22,1.23.97,1.04,1.83,2.13,2.98,3.32-2.15.27-4.17.43-6.14.46-.91.04-1.9.05-2.85,0-3.85-.17-7.59-.78-11.2-2.16-.87-.27-1.64-.58-2.45-.99-3.24-1.47-6.05-3.59-8.97-5.66-4.29-3.12-8.67-6.19-12.98-9.24-.43-.34-.97-.64-1.4-.97.9.2,1.87.43,2.86.59,5.01.72,9.99,1.51,15,2.23Z"/><path class="cls-1" d="M189.12,113.08l-.17.42c-1.33,1.67-2.72,3.3-4.23,4.82-2.61,2.62-5.44,4.98-8.6,6.96-3.56,2.15-7.43,3.44-11.5,4.24-5.38,1.01-10.73,1.94-16.11,2.95-1.77.34-3.5.79-5.23,1.23-.17.01-.34.03-.44.07-.07-.03-.04-.1-.04-.1.45-.31.87-.54,1.32-.85,4-3.03,8.09-6.11,12.09-9.14,3.17-2.39,6.25-4.98,9.77-6.82,5.42-2.71,11.23-3.78,17.23-3.89,1.92-.12,3.9.03,5.91.1Z"/><path class="cls-1" d="M195.08,117.69c.02-.65.03-1.29.13-2.15,3.44,2.78,6.3,5.81,8.94,9.16,4.05,5.31,6.29,11.27,7.25,17.77.79,5.7,1.69,11.36,2.55,17.1.22,1.07.47,2.07.75,3.4-1.05-1.65-1.94-3.07-2.86-4.42-2.93-4.04-5.94-8.11-8.85-12.22-3.09-4.27-5.8-8.87-7-14.16-1.09-4.76-1.34-9.59-.92-14.48Z"/><path class="cls-1" d="M191.64,115.73l.09,1.18c.39,5.7.13,11.39-1.29,16.93-.33,1.42-.77,2.71-1.31,4.04-1.1,2.73-2.6,5.23-4.34,7.71-3.33,4.61-6.63,9.15-9.89,13.78-.92,1.26-1.69,2.58-2.57,3.94.37-1.73.71-3.38.99-5.07.77-4.74,1.44-9.61,2.14-14.38.56-3.61,1.22-7.25,2.61-10.69.17-.42.44-.88.64-1.37,2.04-4.23,4.86-7.99,8.11-11.4,1.51-1.51,3.09-2.99,4.82-4.66Z"/><path class="cls-1" d="M112.64,108.61c.2-.08.7-.12.81,0,2.83,2.28,5.93,3.7,9.58,3.95l-.8.17c-3.23.33-6.01,1.57-8.42,3.69-.35.27-.62.32-1.01.08-2.55-1.36-5.13-2.64-7.95-3.54-.73-.21-1.39-.4-2.29-.6,3.71-.7,6.93-2.01,10.08-3.76Z"/><path class="cls-1" d="M253.01,165.07c.41,0,.69.11.83.58,1.06,3.44,2.46,6.62,4.6,9.61-3.21-1.95-6.66-3.1-10.19-4.04-.24-.01-.5-.37-.56-.63-.27-3.37-1.56-6.42-3.84-9.06q.03-.07-.01-.17c.97.64,1.9,1.34,2.97,1.93,1.92,1.1,4.02,1.54,6.21,1.78Z"/><path class="cls-1" d="M193.56,183.62c.03.34.08.6.14.87.34,2.99,1.57,5.61,3.58,7.89.52.54.61.9.16,1.62-1.63,3.01-3.04,6.11-3.75,9.49-.87-3.7-2.43-7.1-4.46-10.36,2.49-2.74,3.98-5.81,4.33-9.5Z"/><path class="cls-1" d="M143.04,163.54c.03-.07.13-.11.23-.15-.66,1.04-1.43,2.12-1.98,3.28-.98,1.81-1.39,3.84-1.47,5.85-.03.48-.11.69-.58.83-3.46.89-6.68,2.2-9.67,4.16,0,0-.07-.03-.17.01.33-.6.65-1.21.98-1.81,1.43-2.52,2.29-5.27,2.99-8.01.11-.28.4-.57.63-.56,3.41-.17,6.44-1.4,9.04-3.61Z"/><path class="cls-1" d="M67.67,284.53c.34,8.15,6.17,5.57,6.17,10.81,0,2.06-1.2,2.74-4.97,2.74h-15.09c-3.6,0-4.97-.69-4.97-2.74,0-4.8,5.06-3.09,4.97-10.81l-.51-29.33-17.07,36.71c-.77,1.63-1.54,2.32-3.52,2.74-1.97.43-3.09-.34-3.6-1.63l-15.78-37.31-.94,31.39c-.17,5.4,4.29,5.4,4.29,8.49,0,1.97-1.29,2.4-3.94,2.4H4.2c-3.17,0-4.2-.6-4.2-2.49,0-2.83,4.89-3,5.15-8.4l1.8-37.13c.26-6.18-5.15-5.15-5.15-9.18,0-2.06,1.29-2.74,4.46-2.74h11.49c1.8,0,3,.77,3.77,2.4l14.84,34.3,16.04-34.22c.86-1.71,1.97-2.49,3.77-2.49h10.89c3.17,0,4.55.69,4.55,2.74,0,4.03-5.4,2.92-5.15,9.18l1.2,34.56Z"/><path class="cls-1" d="M125.81,292.26c0,3.4-5.64,6.54-10.03,6.54-3.85,0-6.71-1.88-8.33-6.45-4.57,4.66-10.56,6.45-15.94,6.45-9.49,0-16.03-5.46-16.03-12.89,0-8.5,7.43-14.86,21.04-14.86,1.61,0,3.04.18,5.91.45-1.52-4.84-3.67-8.95-9.76-8.95-3.49,0-7.34,1.7-10.3,3.31-1.7,1.07-3.85-.27-2.42-2.78,2.33-4.03,9.31-8.86,18.08-8.86,12.27,0,15.4,8.68,17.55,15.94l4.57,15.58c.9,3.13,1.88,4.92,4.03,4.84.98-.09,1.61.63,1.61,1.7ZM105.66,285.27c-.18-1.25-.98-3.49-1.88-6.18-.72-2.06-2.95-2.96-5.91-2.96-5.64,0-9.13,2.96-9.13,7.34,0,4.74,3.58,8.24,8.95,8.24,4.48,0,8.68-2.95,7.97-6.45Z"/><path class="cls-1" d="M163.5,255.1c2.78,0,4.39.63,4.39,2.51,0,3.94-3.94,2.24-6.8,9.67l-11.1,28.65c-5.1,13.07-9.49,20.95-21.22,20.95-5.55,0-11.82-2.95-11.82-9.22,0-3.49,2.24-6.98,6.36-6.98,6,0,5.01,9.4,10.21,9.4,2.69,0,4.83-3.04,4.83-7.07,0-1.7-.45-3.49-1.16-5.46l-12.09-30.26c-2.86-7.43-6.8-5.73-6.8-9.67,0-2.06,1.61-2.51,4.12-2.51h15.4c2.78,0,4.39.63,4.39,2.51,0,3.94-5.01,2.24-2.15,9.67l7.43,19.07,7.07-19.07c2.86-7.43-2.06-5.73-2.06-9.67,0-2.06,1.61-2.51,4.12-2.51h6.89Z"/><path class="cls-1" d="M214.16,292.26c0,3.4-5.64,6.54-10.03,6.54-3.85,0-6.71-1.88-8.33-6.45-4.57,4.66-10.56,6.45-15.94,6.45-9.49,0-16.03-5.46-16.03-12.89,0-8.5,7.43-14.86,21.04-14.86,1.61,0,3.04.18,5.91.45-1.52-4.84-3.67-8.95-9.76-8.95-3.49,0-7.34,1.7-10.3,3.31-1.7,1.07-3.85-.27-2.42-2.78,2.33-4.03,9.31-8.86,18.08-8.86,12.27,0,15.4,8.68,17.55,15.94l4.57,15.58c.9,3.13,1.88,4.92,4.03,4.84.98-.09,1.61.63,1.61,1.7ZM194.01,285.27c-.18-1.25-.98-3.49-1.88-6.18-.72-2.06-2.95-2.96-5.91-2.96-5.64,0-9.13,2.96-9.13,7.34,0,4.74,3.58,8.24,8.95,8.24,4.48,0,8.68-2.95,7.97-6.45Z"/><path class="cls-1" d="M270.4,268.52v26.6c-7.03,2.58-13.79,4.09-23.58,4.09-19.31,0-31.76-11.3-31.76-31.41s13.17-30.87,32.21-30.87c8.36,0,13.97.98,19.84,2.58l2.05,13.97-10.68-5.43c-3.38-.62-6.76-.89-10.59-.89-10.32,0-18.33,5.96-18.33,20.64s6.94,21.35,18.15,21.35c3.74,0,6.85-.45,10.41-1.25v-10.59l-4.36-8.81h16.64Z"/><path class="cls-1" d="M277.35,288.8v-41.55l-1.96-8.72h29.9c15.57,0,22.15,6.41,22.15,19.84s-6.76,19.66-22.6,19.66h-13.17v10.77l3.2,8.81h-19.49l1.96-8.81ZM302.89,268.52c7.65,0,10.5-2.67,10.5-9.88s-2.85-10.41-10.32-10.41h-11.57v20.29h11.39Z"/><path class="cls-1" d="M362.33,248.76v40.13l3.11,8.72h-20.64l3.2-8.72v-40.13h-10.41l-8.9,2.22,1.96-12.46h49.03l1.87,12.46-8.81-2.22h-10.41Z"/></svg>