<?xml version="1.0" encoding="UTF-8"?><svg id="Layer_1" xmlns="http://www.w3.org/2000/svg" viewBox="0 0 143.73 145.04"><defs><style>.cls-1{fill:#3b3b9b;}.cls-1,.cls-2,.cls-3,.cls-4,.cls-5,.cls-6,.cls-7{stroke-width:0px;}.cls-2{fill:#c92d2d;}.cls-3{fill:#dd5858;}.cls-4{fill:#d94343;}.cls-5{fill:#3098bf;}.cls-6{fill:#f2dc99;}.cls-7{fill:#ea6868;}</style></defs><path class="cls-5" d="M100.44.19s.08-.07.18-.19c-.2.77-.37,1.44-.51,2.18-.72,3.48-.42,6.95.3,10.43.66,3.24,1.51,6.4,2.21,9.66.98,4.54,1.32,9.09.52,13.71-.27,1.59-.68,3.13-1.04,4.68.11,0,.22-.02.35-.07,5.7-2,11.49-2.27,17.39-.95,3.02.69,6.04,1.48,9.09,2.24,3.38.84,6.77,1.51,10.26,1.17,1.32-.11,2.55-.4,3.8-.59-4.45,2.08-7.55,5.66-10.25,9.73-1.83,2.82-3.57,5.68-5.4,8.5-2.96,4.44-6.7,8.03-11.43,10.53-.21.13-.4.21-.6.29s-.34.18-.61.34c.21.14.35.19.48.25,4.72,2.12,8.48,5.45,11.52,9.49,1.99,2.72,3.71,5.54,5.55,8.35,1.87,2.88,3.78,5.78,6.33,8.14,1.53,1.47,3.24,2.64,5.15,3.57-1.87-.49-3.74-.87-5.64-.9-3.44-.17-6.73.47-10.02,1.26-3.45.78-6.88,1.63-10.36,2.24-4.17.71-8.36.56-12.5-.37-.77-.2-1.47-.44-2.24-.64-.23-.09-.5-.2-.84-.29.18.6.38,1.16.53,1.7,1.48,4.74,1.65,9.59.8,14.46-.42,2.75-1.09,5.46-1.6,8.17-.79,3.67-1.33,7.38-.99,11.13.13,1.91.56,3.73,1.23,5.49l-.09-.04c-1.64-3.05-4.05-5.36-6.92-7.21-2.43-1.62-4.98-3.07-7.48-4.51-4.47-2.49-8.73-5.23-12.03-9.16-1.51-1.78-2.81-3.69-3.89-5.77-.08-.19-.23-.36-.34-.61-.46.88-.87,1.62-1.33,2.38-1.82,3.2-4.26,5.93-7.07,8.3-2.59,2.2-5.43,3.97-8.32,5.73-2.59,1.67-5.17,3.33-7.5,5.42-2.08,1.87-3.81,4.04-5.11,6.6.08-.34.17-.68.28-.95.1-.38.19-.72.22-1.08.64-2.5.66-5.05.36-7.61-.44-3.52-1.28-6.95-2.13-10.37-1.05-4.51-1.65-9.06-1.27-13.69.24-2.3.66-4.52,1.41-6.66.04-.09.07-.18.08-.34-.17.04-.28.04-.35.07-6,2.09-12.02,2.26-18.13.81-2.66-.65-5.35-1.36-8.03-2.08-3.72-.92-7.49-1.59-11.36-1.08-1.07.15-2.07.39-3.11.6,4.52-2.11,7.57-5.71,10.23-9.68,2.12-3.13,4.11-6.36,6.25-9.43,3.05-4.4,6.96-7.76,11.79-10.11.08-.07.15-.1.28-.15-.12-.1-.15-.17-.19-.18-5.89-2.65-10.08-7.15-13.46-12.45-1.77-2.73-3.47-5.49-5.23-8.22-1.74-2.67-3.79-5.09-6.44-6.96-.79-.53-1.65-1.04-2.24-1.44,1.19.21,2.61.52,4.1.65,3.21.34,6.3-.22,9.43-.97,3.17-.74,6.35-1.63,9.5-2.33,4.1-.95,8.24-1.19,12.39-.41,1.39.24,2.8.71,4.15,1.04.2.03.38.1.48.14-.39-1.54-.86-3-1.16-4.51-.96-4.32-.82-8.62-.04-12.93.61-3.47,1.37-6.94,1.99-10.46.59-3.43.82-6.9.04-10.35-.21-.93-.5-1.79-.77-2.7.5.73.94,1.49,1.5,2.2,1.68,2.27,3.79,4.03,6.17,5.52,2.28,1.45,4.57,2.75,6.93,4.02,4.81,2.69,9.37,5.75,12.66,10.22,1.09,1.5,2.02,3.15,2.98,4.71.08.19.18.34.31.55.39-.69.71-1.36,1.1-2.05,1.78-3.21,4.17-5.97,6.95-8.4,2.64-2.33,5.68-4.19,8.62-6.08,2.8-1.79,5.59-3.59,7.99-5.96,1.7-1.7,3.1-3.58,4.12-5.72ZM93.8,18.45c-.04-.28-.15-.54-.27-.91-2.42,1.52-4.8,2.95-7.09,4.52-3.39,2.35-6.17,5.27-8.32,8.75-2.13,3.44-3.43,7.17-4.4,11.03-.91,3.83-1.51,7.68-1.91,11.56-.06.67-.13,1.38-.24,2.03-.15-.54-.2-1.09-.26-1.59-.78-5.95-1.83-11.79-3.78-17.47-1.86-5.27-4.84-9.71-9.33-13.07-2.1-1.64-4.44-2.96-6.79-4.23-.74-.41-1.48-.81-2.26-1.23l-.2.5c-.47,1.83-.88,3.63-1.34,5.41-.82,3.34-1.23,6.73-1.02,10.16.31,5.01,2.03,9.59,4.43,13.9,2.3,4.17,5.07,8.11,7.96,11.88.26.27.46.56.64.79-2.46-1.79-4.94-3.7-7.53-5.43-3.32-2.3-6.82-4.3-10.64-5.63-4.73-1.7-9.56-2.11-14.47-1.01-2.98.66-5.89,1.55-8.81,2.34-.11,0-.13.05-.26.11,1.13,1.94,2.23,3.82,3.33,5.7,4.23,7.29,10.51,11.74,18.63,13.85,3.61.93,7.29,1.56,10.99,2,1.27.14,2.56.24,3.88.4-.93.21-1.81.28-2.68.46-5.28.84-10.5,1.92-15.48,3.84-6.33,2.38-11.39,6.35-14.99,12.12-1.25,2.05-2.48,4.15-3.7,6.26l-.47.77.27.11c2.26.59,4.5,1.23,6.77,1.78,3.26.73,6.57.96,9.92.56,3.94-.54,7.57-2.04,11.05-3.93,4.38-2.43,8.44-5.36,12.34-8.46.62-.49,1.27-1.03,1.89-1.52l.03.06c-.1.12-.22.28-.32.4-.38.54-.78,1.01-1.16,1.55-3.35,4.49-6.57,9.03-8.86,14.17-1.77,3.85-2.71,7.89-2.79,12.16,0,3.67.75,7.21,1.69,10.67.32,1.19.65,2.34.97,3.53.19-.08.34-.18.47-.24,1.83-1.12,3.65-2.19,5.48-3.31,6.84-4.3,11.19-10.46,13.36-18.2,1.06-3.67,1.73-7.43,2.24-11.21.18-1.36.31-2.74.48-4.22.02-.31.08-.6.1-.91.24,1.64.45,3.1.7,4.59.79,4.89,1.7,9.72,3.34,14.37,1.7,4.99,4.41,9.33,8.51,12.74,2.67,2.2,5.68,3.83,8.66,5.52l1.45.75.13-.32c.5-2.03,1-4.06,1.44-6.06.71-2.95,1.16-5.91,1.06-8.93-.17-4.58-1.57-8.87-3.6-12.93-2.28-4.48-5.13-8.61-8.19-12.61-.49-.62-.97-1.29-1.46-1.92.23.09.37.26.58.4,4.27,3.37,8.71,6.6,13.61,9.06,4.19,2.12,8.58,3.36,13.3,3.51,3.46.12,6.81-.54,10.08-1.4,1.73-.47,3.46-.94,5.19-1.41-.1-.15-.15-.28-.21-.4-.99-1.62-2.03-3.26-3-4.93-4.25-7.24-10.48-11.94-18.53-14.24-4-1.14-8.11-1.89-12.21-2.38-1.27-.14-2.59-.3-3.86-.44,1.26-.23,2.44-.39,3.71-.63,4.67-.77,9.26-1.73,13.71-3.28,7.08-2.4,12.57-6.77,16.36-13.26,1.14-2.04,2.31-4.01,3.48-5.98.04-.09.03-.2.05-.25-.09-.04-.12-.1-.16-.12-2.17-.56-4.38-1.13-6.56-1.64-7.21-1.75-14.09-.64-20.57,2.9-3.96,2.17-7.69,4.7-11.28,7.4-1.36.99-2.67,2-3.98,3.01-.03-.06,0-.11,0-.11,2.79-3.49,5.42-7.11,7.75-10.9,1.78-2.95,3.28-6.01,4.23-9.29,1.17-3.94,1.51-7.95,1.01-11.97-.42-3.3-1.38-6.45-2.27-9.63Z"/><path class="cls-3" d="M93.53,17.54c.12.37.23.62.27.91.89,3.18,1.85,6.33,2.27,9.63.5,4.03.16,8.03-1.01,11.97-.95,3.28-2.46,6.34-4.23,9.29-2.33,3.79-4.96,7.4-7.75,10.9l-2.16-1.09c.12-.16.21-.39.29-.58,1.12-2.52,1.62-5.19,2-7.85.6-4.12,1.18-8.18,1.72-12.01-.49.81-1.15,1.93-1.89,2.96-1.99,2.81-4,5.56-5.99,8.37-1.35,1.9-2.45,3.95-3.22,6.14l-2.25-.75c.1-.65.18-1.36.24-2.03.4-3.88,1-7.73,1.91-11.56.97-3.86,2.27-7.59,4.4-11.03,2.15-3.49,4.93-6.41,8.32-8.75,2.28-1.57,4.67-3,7.09-4.52Z"/><path class="cls-1" d="M71.46,12.34c.1.41.22.78.29,1.13.51,1.9,1.38,3.69,2.35,5.36.17.23.21.4,0,.64-1.48,1.69-2.36,3.61-2.52,5.84l-.04.09-.24-1.37c-.33-1.68-1.11-3.16-2.24-4.46-.34-.35-.33-.5-.1-.94,1.04-1.92,1.99-3.87,2.39-6.05l.09-.23Z"/><path class="cls-1" d="M112.99,29.49c.08-.07.21-.13.42-.25-1.33,2.12-2.11,4.3-2.75,6.54,0,.16-.19.35-.35.34-2.24.16-4.26.94-5.97,2.42-.02.05-.06.03-.11,0,.4-.58.79-1.17,1.14-1.77.76-1.23,1.01-2.62,1.11-4.07.04-.36.16-.52.57-.62,2.12-.52,4.11-1.37,5.94-2.6Z"/><path class="cls-7" d="M49.15,17.84c.79.42,1.53.83,2.26,1.23,2.36,1.27,4.69,2.59,6.79,4.23,4.49,3.35,7.48,7.8,9.33,13.07,1.96,5.68,3,11.52,3.78,17.47.06.5.11,1.05.26,1.59l2.25.75c-.23.7-.46,1.41-.6,2.15-.6,2.68-.83,5.35-.77,8.09h-1.97c.17-5.67-.97-11.02-4.35-15.68-1.89-2.68-3.83-5.37-5.73-8.05-.87-1.26-1.68-2.54-2.63-3.88.16.65.32,1.19.38,1.69.52,3.45,1.06,6.86,1.59,10.26.36,2.54.78,5.04,1.68,7.43,1.29,3.39,3.44,6.22,5.96,8.79l-1.37,1.41c-2.25-2.19-4.74-4.04-7.61-5.36l1.19-2.55c-.17-.23-.37-.52-.64-.79-2.89-3.77-5.65-7.7-7.96-11.88-2.4-4.32-4.11-8.89-4.43-13.9-.21-3.43.21-6.82,1.02-10.16.45-1.78.86-3.58,1.34-5.41l.2-.5Z"/><path class="cls-4" d="M118.92,47.03c2.18.51,4.4,1.09,6.56,1.64.05.02.07.08.16.12-.02.05,0,.16-.05.25-1.17,1.97-2.34,3.94-3.48,5.98-3.79,6.49-9.28,10.86-16.36,13.26-4.45,1.55-9.04,2.51-13.71,3.28-1.26.23-2.44.39-3.71.63l-.88,2.57c-.87-.35-1.82-.63-2.81-.81-1.89-.45-3.85-.6-5.75-.62l-.05-1.99c5.14-.1,9.92-1.41,14.09-4.62,2.36-1.76,4.71-3.63,7.06-5.38,1.61-1.21,3.19-2.38,4.76-3.5-.7.14-1.41.33-2.11.48-3.57.68-7.12,1.32-10.67,1.96-2.42.46-4.87,1.01-7.17,2.1-3.07,1.42-5.65,3.46-7.95,5.87l-1.41-1.37c2.2-2.3,4.12-4.82,5.46-7.73l2.16,1.09s-.02.05,0,.11c1.31-1.01,2.62-2.02,3.98-3.01,3.59-2.7,7.32-5.23,11.28-7.4,6.48-3.55,13.36-4.65,20.57-2.9Z"/><path class="cls-6" d="M83.04,41.68c.74-1.03,1.4-2.15,1.89-2.96-.53,3.82-1.12,7.89-1.72,12.01-.38,2.66-.88,5.33-2,7.85-.07.18-.17.41-.29.58-1.34,2.91-3.26,5.43-5.46,7.73-.84.88-1.81,1.71-2.77,2.65-.04-.17-.09-.3-.1-.41-.05-.92-.12-1.8-.13-2.71-.06-2.74.17-5.41.77-8.09.14-.74.37-1.44.6-2.15.78-2.18,1.87-4.24,3.22-6.14,1.99-2.81,4-5.56,5.99-8.37Z"/><path class="cls-6" d="M102.67,58.32c.7-.14,1.41-.33,2.11-.48-1.57,1.12-3.16,2.29-4.76,3.5-2.36,1.76-4.71,3.63-7.06,5.38-4.16,3.21-8.95,4.52-14.09,4.62-1.5.03-2.98.02-4.51-.02-.03-.06-.05-.13-.04-.17.52-.64,1.05-1.28,1.57-1.92.3-.36.63-.65.98-.98,2.3-2.42,4.88-4.46,7.95-5.87,2.3-1.09,4.75-1.64,7.17-2.1,3.55-.64,7.1-1.27,10.67-1.96Z"/><path class="cls-6" d="M58.17,40.5c-.06-.5-.22-1.04-.38-1.69.95,1.34,1.76,2.62,2.63,3.88,1.89,2.68,3.83,5.37,5.73,8.05,3.38,4.66,4.51,10.01,4.35,15.68-.02.05,0,.11,0,.16-.01.95-.09,1.93-.12,2.93-.05-.02-.11,0-.17.04-.93-.85-1.92-1.68-2.79-2.56-2.53-2.56-4.67-5.4-5.96-8.79-.9-2.38-1.32-4.89-1.68-7.43-.54-3.41-1.07-6.81-1.59-10.26Z"/><path class="cls-1" d="M123.61,69.23c.25-.22.42-.25.72-.08,1.64.93,3.31,1.81,5.16,2.35.43.12.92.21,1.4.35-.06.03-.13.05-.15.1-2.22.38-4.3,1.18-6.27,2.25-.29.2-.49.17-.78-.05-1.8-1.47-3.83-2.24-6.29-2.33.92-.16,1.66-.29,2.42-.46,1.43-.38,2.69-1.14,3.79-2.14Z"/><path class="cls-1" d="M35.83,33.44c.4.06.59.24.63.68.18,2.2,1.06,4.09,2.51,5.75.07.08.15.17.17.23-.66-.48-1.41-.99-2.13-1.44-1.25-.72-2.62-1.01-4-1.14-.36-.04-.52-.16-.66-.48-.71-2.2-1.58-4.25-2.94-6.13,2.02,1.19,4.14,1.99,6.41,2.54Z"/><path class="cls-7" d="M41.44,49.42c3.82,1.33,7.32,3.33,10.64,5.63,2.59,1.74,5.07,3.64,7.53,5.43l-1.19,2.55c-2.55-1.19-5.26-1.59-7.98-1.95-3.26-.47-6.51-.98-9.78-1.45-.65-.1-1.28-.25-1.87-.38.28.22.63.41.91.63,2.81,1.99,5.67,3.99,8.46,6.02,1.9,1.35,3.73,2.73,5.84,3.69.53.27,1.03.47,1.6.65l-.88,2.57c-1.32-.16-2.61-.26-3.88-.4-3.7-.43-7.38-1.07-10.99-2-8.13-2.11-14.41-6.56-18.63-13.85-1.1-1.88-2.2-3.76-3.33-5.7.13-.05.15-.1.26-.11,2.92-.79,5.83-1.68,8.81-2.34,4.91-1.1,9.74-.69,14.47,1.01Z"/><path class="cls-2" d="M104.41,85.7s-.09-.04-.16-.12c-.93-.59-1.94-1.1-2.84-1.78-3.02-2.12-6.02-4.29-9.03-6.46-1.54-1.05-3.19-1.98-4.91-2.57l.88-2.57c1.27.14,2.59.3,3.86.44,4.11.49,8.21,1.25,12.21,2.38,8.05,2.3,14.28,6.99,18.53,14.24.97,1.67,2.01,3.31,3,4.93.05.13.11.26.21.4-1.73.47-3.46.94-5.19,1.41-3.27.86-6.62,1.52-10.08,1.4-4.72-.15-9.11-1.39-13.3-3.51-4.9-2.46-9.34-5.69-13.61-9.06-.21-.14-.36-.3-.58-.4.49.62.97,1.29,1.46,1.92,3.06,4,5.91,8.13,8.19,12.61,2.03,4.06,3.43,8.35,3.6,12.93.11,3.02-.34,5.97-1.06,8.93-.44,2-.94,4.03-1.44,6.06l-.13.32-1.45-.75c-2.99-1.68-5.99-3.32-8.66-5.52-4.1-3.41-6.81-7.75-8.51-12.74-1.63-4.64-2.55-9.48-3.34-14.37-.25-1.48-.46-2.95-.7-4.59-.02.31-.08.6-.1.91l-2.63-.32c.35-.87.64-1.71.85-2.63.93-3.61,1.1-7.32.84-11.03l-.06-.77c-1.13,1.08-2.16,2.05-3.14,3.04l-1.37-1.35c.98-.98,1.89-2.05,2.76-3.14l.11-.27c-1.31-.05-2.6-.15-3.85-.07v-1.97c1.28-.01,2.6-.12,4-.3-.75-.78-1.31-1.49-1.94-2.17l-.79-.8,1.37-1.41c.87.88,1.86,1.71,2.79,2.56.06-.03.13-.05.17-.04.03-1,.11-1.98.12-2.93.02-.05,0-.11,0-.16h1.97c0,.9.08,1.78.13,2.71,0,.11.06.24.1.41.96-.94,1.94-1.77,2.77-2.65l1.41,1.37c-.35.34-.68.63-.98.98-.52.64-1.05,1.28-1.57,1.92-.02.05,0,.11.04.17,1.53.03,3.01.05,4.51.02l.05,1.99c-1.44,0-2.85.07-4.23.2-.11,0-.24.06-.52.11,1.35,1.4,2.54,2.78,3.9,4.02,3.34,3.05,7.17,5.13,11.67,5.83,4.9.76,9.76,1.5,14.68,2.21ZM72.59,75.29c-.07.56-.08.98-.09,1.4-.28,3.18-.11,6.33.6,9.43.78,3.45,2.55,6.45,4.56,9.23,1.89,2.68,3.85,5.33,5.76,7.96.6.88,1.18,1.81,1.87,2.88-.18-.87-.34-1.52-.49-2.22-.56-3.73-1.15-7.42-1.66-11.14-.63-4.24-2.09-8.12-4.73-11.58-1.72-2.18-3.58-4.16-5.83-5.97Z"/><path class="cls-6" d="M87.47,74.77c1.73.59,3.37,1.52,4.91,2.57,3,2.17,6.01,4.34,9.03,6.46.89.68,1.91,1.2,2.84,1.78.07.08.12.1.16.12-4.92-.71-9.78-1.45-14.68-2.21-4.5-.7-8.33-2.78-11.67-5.83-1.36-1.24-2.55-2.63-3.9-4.02.28-.04.41-.1.52-.11,1.38-.13,2.79-.2,4.23-.2,1.9.02,3.86.18,5.75.62.99.19,1.94.46,2.81.81Z"/><path class="cls-6" d="M50.44,61.08c2.73.36,5.43.76,7.98,1.95,2.87,1.32,5.36,3.18,7.61,5.36l.79.8c.63.68,1.19,1.39,1.94,2.17-1.4.18-2.72.28-4,.3-.59.03-1.24.03-1.86,0-2.51-.11-4.95-.51-7.3-1.41-.57-.18-1.07-.38-1.6-.65-2.11-.96-3.94-2.34-5.84-3.69-2.79-2.03-5.65-4.04-8.46-6.02-.28-.22-.63-.41-.91-.63.59.13,1.22.28,1.87.38,3.26.47,6.51.98,9.78,1.45Z"/><path class="cls-3" d="M62.91,71.64c.62.04,1.26.03,1.86,0v1.97c-3.9.07-7.69.77-11.22,2.53-2.29,1.2-4.3,2.89-6.36,4.44-2.61,1.98-5.27,3.98-7.88,5.96-.29.2-.57.35-.86.56,0,0-.02.05.03.06.06-.03.17-.04.28-.04,1.13-.29,2.25-.58,3.41-.8,3.51-.66,6.99-1.27,10.5-1.92,2.66-.52,5.17-1.36,7.49-2.76,2.06-1.29,3.91-2.83,5.61-4.54l1.37,1.35c-2.12,2.23-3.96,4.67-5.29,7.43-.13.32-.3.62-.41.9l-2.04-1.52c.1-.12.22-.28.32-.4l-.03-.06c-.62.49-1.27,1.03-1.89,1.52-3.91,3.1-7.96,6.03-12.34,8.46-3.47,1.89-7.11,3.4-11.05,3.93-3.35.4-6.66.18-9.92-.56-2.28-.55-4.52-1.19-6.77-1.78l-.27-.11.47-.77c1.22-2.11,2.45-4.22,3.7-6.26,3.61-5.77,8.66-9.73,14.99-12.12,4.97-1.92,10.19-3,15.48-3.84.87-.18,1.75-.25,2.68-.46l.88-2.57c2.35.9,4.79,1.3,7.3,1.41Z"/><path class="cls-6" d="M68.62,73.69l-.11.27c-.86,1.09-1.77,2.15-2.76,3.14-1.7,1.7-3.54,3.24-5.61,4.54-2.32,1.4-4.84,2.24-7.49,2.76-3.51.66-6.99,1.27-10.5,1.92-1.15.22-2.28.51-3.41.8-.11,0-.22.02-.28.04-.05-.02-.03-.06-.03-.06.29-.2.57-.35.86-.56,2.61-1.98,5.27-3.98,7.88-5.96,2.06-1.56,4.07-3.24,6.36-4.44,3.53-1.76,7.32-2.46,11.23-2.53,1.25-.08,2.54.02,3.85.07Z"/><path class="cls-6" d="M72.51,76.69c.01-.42.02-.84.09-1.4,2.24,1.81,4.1,3.78,5.83,5.97,2.64,3.46,4.1,7.34,4.73,11.58.52,3.72,1.1,7.41,1.66,11.14.14.7.31,1.35.49,2.22-.68-1.07-1.26-2-1.87-2.88-1.91-2.63-3.87-5.28-5.76-7.96-2.01-2.78-3.78-5.78-4.56-9.23-.71-3.1-.87-6.25-.6-9.43Z"/><path class="cls-6" d="M70.26,75.41l.06.77c.25,3.72.08,7.42-.84,11.03-.21.92-.5,1.76-.85,2.63-.72,1.78-1.7,3.41-2.83,5.02-2.17,3-4.32,5.96-6.44,8.98-.6.82-1.1,1.68-1.67,2.57.24-1.12.47-2.2.64-3.3.5-3.09.94-6.26,1.4-9.37.36-2.35.79-4.73,1.7-6.97.11-.27.29-.58.41-.9,1.33-2.76,3.17-5.2,5.29-7.43.98-.98,2.01-1.95,3.14-3.04Z"/><path class="cls-4" d="M59.37,85.25l2.04,1.52c-.9,2.24-1.33,4.62-1.7,6.97-.46,3.11-.89,6.28-1.4,9.37-.18,1.1-.4,2.18-.64,3.3.57-.89,1.08-1.74,1.67-2.57,2.12-3.02,4.28-5.98,6.44-8.98,1.13-1.62,2.11-3.24,2.83-5.02l2.63.32c-.17,1.47-.3,2.85-.48,4.22-.52,3.78-1.19,7.54-2.24,11.21-2.17,7.73-6.52,13.89-13.36,18.2-1.83,1.12-3.65,2.19-5.48,3.31-.13.05-.28.15-.47.24-.32-1.19-.65-2.34-.97-3.53-.94-3.46-1.69-7-1.69-10.67.08-4.27,1.02-8.3,2.79-12.16,2.29-5.13,5.5-9.68,8.86-14.17.38-.54.78-1.01,1.16-1.55Z"/><path class="cls-1" d="M18.78,70.77c.13-.05.46-.08.53,0,1.84,1.49,3.86,2.41,6.24,2.57l-.52.11c-2.11.21-3.92,1.02-5.49,2.41-.23.17-.4.21-.66.05-1.66-.88-3.34-1.72-5.18-2.31-.48-.14-.9-.26-1.49-.39,2.42-.46,4.52-1.31,6.57-2.45Z"/><path class="cls-1" d="M110.25,107.56c.27,0,.45.07.54.38.69,2.24,1.6,4.31,3,6.26-2.09-1.27-4.34-2.02-6.64-2.63-.16,0-.33-.24-.36-.41-.18-2.2-1.02-4.18-2.5-5.9t0-.11c.63.41,1.24.87,1.94,1.26,1.25.72,2.62,1.01,4.05,1.16Z"/><path class="cls-1" d="M71.51,119.65c.02.22.05.39.09.57.22,1.95,1.02,3.65,2.33,5.14.34.35.4.59.11,1.05-1.06,1.96-1.98,3.98-2.45,6.19-.57-2.41-1.59-4.63-2.9-6.75,1.63-1.79,2.59-3.79,2.82-6.19Z"/><path class="cls-1" d="M38.6,106.56s.08-.07.15-.1c-.43.68-.93,1.38-1.29,2.14-.64,1.18-.91,2.5-.96,3.81-.02.31-.07.45-.38.54-2.25.58-4.35,1.43-6.3,2.71,0,0-.05-.02-.11,0l.64-1.18c.93-1.64,1.49-3.43,1.95-5.22.07-.18.26-.37.41-.36,2.22-.11,4.19-.91,5.89-2.35Z"/></svg>