<?xml version="1.0" encoding="UTF-8"?><svg id="icons" xmlns="http://www.w3.org/2000/svg" viewBox="0 0 492.88 317.29"><defs><style>.cls-1{fill:#17ceff;stroke-width:0px;}</style></defs><path class="cls-1" d="M291.86.29c.03-.07.13-.11.28-.29-.31,1.18-.57,2.22-.78,3.35-1.1,5.35-.64,10.67.46,16.01,1.01,4.97,2.31,9.82,3.39,14.82,1.51,6.97,2.03,13.95.8,21.04-.42,2.44-1.04,4.8-1.6,7.18.17-.01.34-.03.53-.11,8.74-3.07,17.63-3.48,26.68-1.45,4.63,1.06,9.27,2.28,13.94,3.43,5.19,1.28,10.4,2.32,15.75,1.8,2.02-.16,3.92-.62,5.83-.91-6.83,3.19-11.59,8.69-15.74,14.93-2.81,4.33-5.48,8.71-8.29,13.04-4.54,6.81-10.28,12.32-17.54,16.16-.32.2-.62.32-.91.45s-.52.28-.94.52c.32.21.53.3.74.38,7.25,3.25,13.01,8.36,17.68,14.57,3.05,4.17,5.7,8.5,8.52,12.82,2.86,4.42,5.8,8.87,9.72,12.49,2.35,2.25,4.97,4.05,7.9,5.48-2.88-.75-5.74-1.34-8.66-1.38-5.28-.26-10.32.72-15.38,1.94-5.3,1.2-10.55,2.5-15.91,3.44-6.39,1.09-12.82.85-19.18-.57-1.18-.31-2.26-.67-3.44-.98-.35-.14-.77-.31-1.29-.44.28.93.58,1.79.82,2.61,2.28,7.28,2.53,14.72,1.23,22.19-.65,4.22-1.67,8.38-2.46,12.54-1.21,5.63-2.05,11.32-1.52,17.08.2,2.94.86,5.73,1.89,8.43l-.14-.06c-2.51-4.68-6.22-8.22-10.62-11.06-3.73-2.48-7.64-4.72-11.48-6.92-6.85-3.83-13.4-8.02-18.46-14.06-2.32-2.73-4.32-5.66-5.96-8.85-.13-.3-.35-.55-.52-.94-.71,1.35-1.33,2.48-2.05,3.66-2.8,4.9-6.53,9.1-10.86,12.74-3.97,3.37-8.33,6.09-12.77,8.79-3.97,2.56-7.94,5.11-11.51,8.31-3.2,2.87-5.85,6.2-7.84,10.12.13-.52.26-1.04.43-1.46.16-.59.28-1.11.34-1.66.98-3.84,1.01-7.75.56-11.68-.67-5.41-1.97-10.66-3.27-15.92-1.6-6.93-2.54-13.91-1.95-21.01.36-3.52,1.01-6.93,2.17-10.21.06-.14.11-.28.13-.52-.27.06-.44.07-.53.11-9.21,3.21-18.45,3.47-27.82,1.24-4.08-1-8.21-2.09-12.33-3.19-5.71-1.41-11.49-2.44-17.43-1.66-1.64.23-3.18.59-4.78.92,6.93-3.23,11.61-8.76,15.71-14.86,3.25-4.8,6.31-9.76,9.6-14.47,4.68-6.75,10.68-11.91,18.1-15.52.13-.11.23-.15.42-.24-.18-.16-.22-.25-.29-.28-9.04-4.06-15.46-10.98-20.66-19.11-2.71-4.19-5.32-8.43-8.03-12.62-2.67-4.1-5.81-7.81-9.88-10.68-1.22-.82-2.54-1.6-3.43-2.2,1.82.33,4,.8,6.29.99,4.93.52,9.68-.33,14.47-1.49,4.86-1.13,9.74-2.51,14.57-3.57,6.3-1.45,12.64-1.82,19.01-.64,2.13.37,4.29,1.08,6.37,1.59.31.04.59.16.73.21-.6-2.36-1.32-4.61-1.77-6.91-1.48-6.63-1.26-13.23-.06-19.84.93-5.33,2.1-10.65,3.06-16.05.9-5.26,1.26-10.58.06-15.88-.32-1.43-.76-2.75-1.18-4.15.77,1.13,1.44,2.29,2.31,3.38,2.59,3.49,5.82,6.18,9.46,8.47,3.5,2.23,7.02,4.22,10.64,6.17,7.39,4.13,14.38,8.83,19.43,15.68,1.68,2.31,3.1,4.84,4.58,7.23.13.3.28.52.47.84.59-1.07,1.09-2.09,1.68-3.15,2.73-4.93,6.39-9.16,10.67-12.89,4.06-3.58,8.71-6.43,13.23-9.33,4.29-2.75,8.58-5.5,12.26-9.15,2.61-2.62,4.75-5.5,6.32-8.78ZM281.68,28.31c-.07-.44-.24-.83-.42-1.39-3.71,2.33-7.37,4.52-10.88,6.94-5.21,3.6-9.46,8.08-12.77,13.43-3.28,5.28-5.26,11-6.76,16.92-1.4,5.88-2.32,11.79-2.93,17.74-.09,1.02-.2,2.12-.36,3.12-.24-.83-.3-1.67-.4-2.44-1.2-9.13-2.8-18.09-5.8-26.81-2.85-8.08-7.43-14.91-14.32-20.06-3.22-2.52-6.81-4.54-10.42-6.49-1.14-.62-2.27-1.24-3.48-1.89l-.31.77c-.73,2.81-1.35,5.57-2.05,8.31-1.25,5.12-1.89,10.33-1.57,15.59.48,7.7,3.11,14.71,6.79,21.34,3.53,6.4,7.78,12.44,12.21,18.23.41.41.71.86.98,1.21-3.78-2.75-7.58-5.67-11.55-8.34-5.1-3.53-10.47-6.59-16.33-8.64-7.26-2.61-14.68-3.24-22.21-1.55-4.57,1.01-9.04,2.38-13.52,3.59-.17.01-.2.08-.39.17,1.73,2.98,3.42,5.87,5.11,8.75,6.49,11.18,16.13,18.01,28.6,21.26,5.54,1.42,11.18,2.4,16.87,3.06,1.95.22,3.93.36,5.95.61-1.43.32-2.78.43-4.12.7-8.11,1.29-16.11,2.95-23.75,5.9-9.71,3.66-17.47,9.74-23.01,18.59-1.92,3.14-3.8,6.38-5.68,9.61l-.72,1.18.42.17c3.46.91,6.9,1.89,10.39,2.73,5.01,1.13,10.09,1.47,15.23.85,6.04-.82,11.62-3.13,16.95-6.03,6.72-3.73,12.95-8.23,18.94-12.98.96-.75,1.94-1.58,2.9-2.33l.04.1c-.16.18-.34.43-.49.62-.58.83-1.2,1.55-1.78,2.38-5.15,6.89-10.09,13.87-13.6,21.74-2.72,5.92-4.16,12.1-4.28,18.66,0,5.63,1.16,11.07,2.6,16.38.49,1.83,1,3.58,1.48,5.41.3-.13.52-.28.72-.36,2.81-1.72,5.6-3.36,8.41-5.08,10.5-6.6,17.17-16.06,20.5-27.93,1.62-5.62,2.65-11.41,3.44-17.2.27-2.09.48-4.21.74-6.47.03-.48.13-.93.16-1.4.37,2.51.69,4.76,1.07,7.04,1.21,7.5,2.62,14.92,5.12,22.05,2.61,7.66,6.77,14.32,13.06,19.55,4.1,3.37,8.71,5.89,13.3,8.47.74.38,1.49.76,2.23,1.15l.2-.49c.77-3.11,1.54-6.23,2.21-9.3,1.1-4.53,1.79-9.06,1.62-13.7-.26-7.04-2.41-13.61-5.52-19.84-3.5-6.88-7.87-13.21-12.57-19.35-.75-.96-1.48-1.98-2.24-2.94.35.14.57.4.9.61,6.55,5.18,13.36,10.13,20.89,13.9,6.43,3.25,13.17,5.16,20.41,5.39,5.31.19,10.45-.83,15.47-2.15,2.66-.72,5.31-1.44,7.97-2.16-.15-.23-.24-.42-.32-.62-1.52-2.49-3.11-5.01-4.61-7.57-6.52-11.11-16.08-18.32-28.44-21.85-6.14-1.75-12.44-2.91-18.75-3.66-1.95-.22-3.97-.46-5.92-.68,1.94-.36,3.75-.6,5.69-.96,7.16-1.18,14.2-2.66,21.04-5.04,10.87-3.68,19.29-10.39,25.11-20.36,1.75-3.13,3.55-6.15,5.34-9.18.06-.14.04-.31.07-.38-.14-.06-.18-.16-.25-.18-3.32-.85-6.72-1.74-10.07-2.52-11.07-2.68-21.62-.99-31.57,4.45-6.08,3.33-11.81,7.22-17.31,11.36-2.08,1.52-4.1,3.07-6.11,4.63-.04-.1-.01-.17-.01-.17,4.29-5.36,8.32-10.91,11.89-16.72,2.73-4.53,5.03-9.22,6.49-14.26,1.79-6.05,2.32-12.19,1.55-18.37-.64-5.07-2.11-9.91-3.49-14.78Z"/><path class="cls-1" d="M247.38,18.94c.15.63.33,1.19.44,1.73.78,2.92,2.11,5.67,3.61,8.23.27.35.32.62.01.98-2.27,2.59-3.63,5.55-3.86,8.96l-.06.14-.37-2.11c-.51-2.57-1.71-4.85-3.43-6.85-.52-.54-.5-.77-.15-1.45,1.6-2.94,3.05-5.94,3.67-9.28l.14-.35Z"/><path class="cls-1" d="M311.12,45.26c.13-.11.32-.2.65-.39-2.05,3.25-3.24,6.6-4.22,10.04-.01.24-.3.53-.54.52-3.44.24-6.53,1.44-9.17,3.72-.03.07-.1.04-.17.01.61-.9,1.21-1.79,1.75-2.72,1.17-1.89,1.54-4.02,1.71-6.24.06-.55.24-.8.87-.95,3.26-.8,6.31-2.1,9.11-3.98Z"/><path class="cls-1" d="M265.15,63.96c1.13-1.58,2.15-3.29,2.89-4.54-.82,5.87-1.71,12.11-2.63,18.43-.59,4.08-1.35,8.18-3.07,12.05-.11.28-.25.63-.44.88-2.05,4.47-5,8.34-8.38,11.86-1.28,1.36-2.78,2.63-4.25,4.07-.06-.27-.14-.46-.15-.63-.08-1.42-.19-2.77-.2-4.16-.1-4.2.25-8.3,1.18-12.41.21-1.14.57-2.22.92-3.3,1.19-3.35,2.87-6.5,4.95-9.42,3.05-4.31,6.14-8.53,9.19-12.84Z"/><path class="cls-1" d="M295.28,89.51c1.07-.22,2.16-.51,3.23-.73-2.41,1.72-4.84,3.51-7.31,5.37-3.62,2.7-7.22,5.56-10.84,8.26-6.39,4.92-13.73,6.93-21.62,7.09-2.3.05-4.58.03-6.92-.02-.04-.1-.08-.2-.06-.27.8-.98,1.61-1.96,2.41-2.94.47-.55.97-.99,1.51-1.51,3.54-3.71,7.49-6.84,12.2-9.01,3.53-1.67,7.3-2.52,11.01-3.22,5.45-.98,10.9-1.96,16.38-3Z"/><path class="cls-1" d="M226.98,62.16c-.1-.77-.33-1.6-.58-2.6,1.45,2.05,2.7,4.03,4.04,5.95,2.91,4.11,5.88,8.25,8.79,12.36,5.18,7.15,6.93,15.36,6.67,24.06-.03.07.01.17-.01.24-.02,1.46-.14,2.96-.18,4.49-.07-.03-.17.01-.27.06-1.43-1.31-2.95-2.58-4.28-3.93-3.88-3.93-7.17-8.28-9.15-13.48-1.38-3.66-2.02-7.5-2.57-11.4-.82-5.23-1.65-10.45-2.44-15.75Z"/><path class="cls-1" d="M327.42,106.24c.38-.34.65-.39,1.11-.12,2.52,1.43,5.07,2.78,7.92,3.61.66.18,1.42.33,2.15.54-.1.04-.2.08-.23.15-3.41.58-6.61,1.82-9.63,3.45-.45.31-.76.26-1.19-.07-2.76-2.26-5.87-3.43-9.65-3.57,1.4-.25,2.54-.44,3.71-.7,2.19-.58,4.13-1.75,5.81-3.28Z"/><path class="cls-1" d="M192.71,51.33c.62.09.91.37.97,1.04.27,3.37,1.62,6.28,3.86,8.82.11.13.22.25.27.35-1.01-.73-2.16-1.52-3.26-2.22-1.92-1.1-4.02-1.54-6.14-1.75-.55-.06-.8-.24-1.01-.73-1.08-3.37-2.42-6.52-4.52-9.41,3.1,1.82,6.35,3.05,9.84,3.9Z"/><path class="cls-1" d="M271.96,114.74c2.65.91,5.17,2.33,7.54,3.94,4.61,3.33,9.22,6.66,13.85,9.92,1.37,1.04,2.93,1.84,4.36,2.74.11.13.18.16.25.18-7.55-1.09-15-2.23-22.52-3.39-6.9-1.08-12.79-4.27-17.91-8.95-2.09-1.9-3.92-4.03-5.99-6.17.44-.07.63-.15.8-.17,2.12-.2,4.28-.31,6.49-.31,2.92.04,5.92.27,8.83.96,1.52.29,2.97.71,4.31,1.25Z"/><path class="cls-1" d="M215.12,93.74c4.18.55,8.34,1.17,12.25,2.99,4.4,2.02,8.23,4.87,11.68,8.23.41.41.81.82,1.22,1.23.97,1.04,1.83,2.13,2.98,3.32-2.15.27-4.17.43-6.14.46-.91.04-1.9.05-2.85,0-3.85-.17-7.59-.78-11.2-2.16-.87-.27-1.64-.58-2.45-.99-3.24-1.47-6.05-3.59-8.97-5.66-4.29-3.12-8.67-6.19-12.98-9.24-.43-.34-.97-.64-1.4-.97.9.2,1.87.43,2.86.59,5.01.72,9.99,1.51,15,2.23Z"/><path class="cls-1" d="M243.02,113.08l-.17.42c-1.33,1.67-2.72,3.3-4.23,4.82-2.61,2.62-5.44,4.98-8.6,6.96-3.56,2.15-7.43,3.44-11.5,4.24-5.38,1.01-10.73,1.94-16.11,2.95-1.77.34-3.5.79-5.23,1.23-.17.01-.34.03-.44.07-.07-.03-.04-.1-.04-.1.45-.31.87-.54,1.32-.85,4-3.03,8.09-6.11,12.09-9.14,3.17-2.39,6.25-4.98,9.77-6.82,5.42-2.71,11.23-3.78,17.23-3.89,1.92-.12,3.9.03,5.91.1Z"/><path class="cls-1" d="M248.99,117.69c.02-.65.03-1.29.13-2.15,3.44,2.78,6.3,5.81,8.94,9.16,4.05,5.31,6.29,11.27,7.25,17.77.79,5.7,1.69,11.36,2.55,17.1.22,1.07.47,2.07.75,3.4-1.05-1.65-1.94-3.07-2.86-4.42-2.93-4.04-5.94-8.11-8.85-12.22-3.09-4.27-5.8-8.87-7-14.16-1.09-4.76-1.34-9.59-.92-14.48Z"/><path class="cls-1" d="M245.54,115.73l.09,1.18c.39,5.7.13,11.39-1.29,16.93-.33,1.42-.77,2.71-1.31,4.04-1.1,2.73-2.6,5.23-4.34,7.71-3.33,4.61-6.63,9.15-9.89,13.78-.92,1.26-1.69,2.58-2.57,3.94.37-1.73.71-3.38.99-5.07.77-4.74,1.44-9.61,2.14-14.38.56-3.61,1.22-7.25,2.61-10.69.17-.42.44-.88.64-1.37,2.04-4.23,4.86-7.99,8.11-11.4,1.51-1.51,3.09-2.99,4.82-4.66Z"/><path class="cls-1" d="M166.55,108.61c.2-.08.7-.12.81,0,2.83,2.28,5.93,3.7,9.58,3.95l-.8.17c-3.23.33-6.01,1.57-8.42,3.69-.35.27-.62.32-1.01.08-2.55-1.36-5.13-2.64-7.95-3.54-.73-.21-1.39-.4-2.29-.6,3.71-.7,6.93-2.01,10.08-3.76Z"/><path class="cls-1" d="M306.91,165.07c.41,0,.69.11.83.58,1.06,3.44,2.46,6.62,4.6,9.61-3.21-1.95-6.66-3.1-10.19-4.04-.24-.01-.5-.37-.56-.63-.27-3.37-1.56-6.42-3.84-9.06q.03-.07-.01-.17c.97.64,1.9,1.34,2.97,1.93,1.92,1.1,4.02,1.54,6.21,1.78Z"/><path class="cls-1" d="M247.47,183.62c.03.34.08.6.14.87.34,2.99,1.57,5.61,3.58,7.89.52.54.61.9.16,1.62-1.63,3.01-3.04,6.11-3.75,9.49-.87-3.7-2.43-7.1-4.46-10.36,2.49-2.74,3.98-5.81,4.33-9.5Z"/><path class="cls-1" d="M196.95,163.54c.03-.07.13-.11.23-.15-.66,1.04-1.43,2.12-1.98,3.28-.98,1.81-1.39,3.84-1.47,5.85-.03.48-.11.69-.58.83-3.46.89-6.68,2.2-9.67,4.16,0,0-.07-.03-.17.01.33-.6.65-1.21.98-1.81,1.43-2.52,2.29-5.27,2.99-8.01.11-.28.4-.57.63-.56,3.41-.17,6.44-1.4,9.04-3.61Z"/><path class="cls-1" d="M220.02,297.31l-2.33-15.22,11.58,6.35c5.14,1.4,9.15,2.05,13.45,2.05,7.75,0,11.58-2.8,11.58-7.47s-2.9-7-13.91-9.81c-15.5-3.92-22.32-9.34-22.32-19.89s8.4-18.12,25.49-18.12c7.94,0,14.66.93,21.76,2.61l2.24,14.66-11.21-5.7c-3.83-1.12-7.47-1.59-11.58-1.59-6.91,0-11.39,2.52-11.39,6.72s2.43,6.82,13.54,9.62c15.97,4.02,22.79,9.71,22.79,19.98,0,11.3-9.25,18.96-26.15,18.86-10.74,0-18.12-1.87-23.53-3.08Z"/><path class="cls-1" d="M276.84,285.54v-24.47h-8.22v-1.31l19.42-19.33h3.27v11.58h14.38v9.06h-14.38v23.35c0,3.27,1.87,5.04,5.14,5.04,2.71,0,5.88-.47,9.9-1.4l-1.59,9.71c-3.55,1.21-7.47,2.33-13.07,2.33-9.62,0-14.85-5.14-14.85-14.57Z"/><path class="cls-1" d="M344.61,298.8l-1.03-8.69c-2.33,5.79-7.84,10.09-16.53,10.09-10.18,0-16.25-7-16.25-16.25v-19.61l-2.8-9.25,17.37-4.95v32.13c0,5.32,2.99,8.59,8.03,8.59s9.06-3.64,9.06-10.18v-16.44l-2.71-9.15,17.28-4.95v39.13l3.18,9.53h-15.6Z"/><path class="cls-1" d="M363.03,275.46c0-16.81,9.62-24.75,19.61-24.75,7.1,0,10.93,3.36,14.19,6.91v-11.67l-2.8-9.15,17.28-4.86v57.71l3.08,9.25-15.5-.09-1.12-8.69c-2.9,5.7-8.4,10.09-16.06,10.09-8.97,0-18.68-7.38-18.68-24.75ZM397.03,277.79v-13.17c-2.43-2.43-5.14-4.02-9.06-4.02-5.98,0-10.27,4.39-10.27,14.57s3.83,14.38,9.53,14.38,9.81-4.11,9.81-11.77Z"/><path class="cls-1" d="M420.54,289.65v-25.4l-2.8-9.15,17.37-4.95v39.5l2.05,9.15h-18.58l1.96-9.15Z"/><path class="cls-1" d="M440.39,275.36c0-15.69,11.21-24.84,26.34-24.84s26.15,9.15,26.15,24.84-11.11,24.93-26.15,24.93-26.34-9.25-26.34-24.93ZM477.66,275.36c0-10.46-4.2-14.85-10.93-14.85s-11.11,4.39-11.11,14.85,4.3,14.94,11.02,14.94,11.02-4.48,11.02-14.94Z"/><path class="cls-1" d="M67.67,284.94c.34,8.15,6.17,5.57,6.17,10.81,0,2.06-1.2,2.74-4.97,2.74h-15.09c-3.6,0-4.97-.69-4.97-2.74,0-4.8,5.06-3.09,4.97-10.81l-.51-29.33-17.07,36.71c-.77,1.63-1.54,2.32-3.52,2.74-1.97.43-3.09-.34-3.6-1.63l-15.78-37.31-.94,31.39c-.17,5.4,4.29,5.4,4.29,8.49,0,1.97-1.29,2.4-3.94,2.4H4.2c-3.17,0-4.2-.6-4.2-2.49,0-2.83,4.89-3,5.15-8.4l1.8-37.13c.26-6.18-5.15-5.15-5.15-9.18,0-2.06,1.29-2.74,4.46-2.74h11.49c1.8,0,3,.77,3.77,2.4l14.84,34.3,16.04-34.22c.86-1.71,1.97-2.49,3.77-2.49h10.89c3.17,0,4.55.69,4.55,2.74,0,4.03-5.4,2.92-5.15,9.18l1.2,34.56Z"/><path class="cls-1" d="M125.81,292.67c0,3.4-5.64,6.54-10.03,6.54-3.85,0-6.71-1.88-8.33-6.45-4.57,4.66-10.56,6.45-15.94,6.45-9.49,0-16.03-5.46-16.03-12.89,0-8.5,7.43-14.86,21.04-14.86,1.61,0,3.04.18,5.91.45-1.52-4.84-3.67-8.95-9.76-8.95-3.49,0-7.34,1.7-10.3,3.31-1.7,1.07-3.85-.27-2.42-2.78,2.33-4.03,9.31-8.86,18.08-8.86,12.27,0,15.4,8.68,17.55,15.94l4.57,15.58c.9,3.13,1.88,4.92,4.03,4.84.98-.09,1.61.63,1.61,1.7ZM105.66,285.69c-.18-1.25-.98-3.49-1.88-6.18-.72-2.06-2.95-2.96-5.91-2.96-5.64,0-9.13,2.96-9.13,7.34,0,4.74,3.58,8.24,8.95,8.24,4.48,0,8.68-2.95,7.97-6.45Z"/><path class="cls-1" d="M163.5,255.51c2.78,0,4.39.63,4.39,2.51,0,3.94-3.94,2.24-6.8,9.67l-11.1,28.65c-5.1,13.07-9.49,20.95-21.22,20.95-5.55,0-11.82-2.95-11.82-9.22,0-3.49,2.24-6.98,6.36-6.98,6,0,5.01,9.4,10.21,9.4,2.69,0,4.83-3.04,4.83-7.07,0-1.7-.45-3.49-1.16-5.46l-12.09-30.26c-2.86-7.43-6.8-5.73-6.8-9.67,0-2.06,1.61-2.51,4.12-2.51h15.4c2.78,0,4.39.63,4.39,2.51,0,3.94-5.01,2.24-2.15,9.67l7.43,19.07,7.07-19.07c2.86-7.43-2.06-5.73-2.06-9.67,0-2.06,1.61-2.51,4.12-2.51h6.89Z"/><path class="cls-1" d="M214.16,292.67c0,3.4-5.64,6.54-10.03,6.54-3.85,0-6.71-1.88-8.33-6.45-4.57,4.66-10.56,6.45-15.94,6.45-9.49,0-16.03-5.46-16.03-12.89,0-8.5,7.43-14.86,21.04-14.86,1.61,0,3.04.18,5.91.45-1.52-4.84-3.67-8.95-9.76-8.95-3.49,0-7.34,1.7-10.3,3.31-1.7,1.07-3.85-.27-2.42-2.78,2.33-4.03,9.31-8.86,18.08-8.86,12.27,0,15.4,8.68,17.55,15.94l4.57,15.58c.9,3.13,1.88,4.92,4.03,4.84.98-.09,1.61.63,1.61,1.7ZM194.01,285.69c-.18-1.25-.98-3.49-1.88-6.18-.72-2.06-2.95-2.96-5.91-2.96-5.64,0-9.13,2.96-9.13,7.34,0,4.74,3.58,8.24,8.95,8.24,4.48,0,8.68-2.95,7.97-6.45Z"/><path class="cls-1" d="M432.85,223.25s.01-.01.03-.03c-.04.14-.07.26-.09.39-.13.62-.07,1.25.05,1.87.12.58.27,1.15.4,1.73.18.81.24,1.63.09,2.46-.05.28-.12.56-.19.84.02,0,.04,0,.06-.01,1.02-.36,2.06-.41,3.11-.17.54.12,1.08.27,1.63.4.61.15,1.21.27,1.84.21.24-.02.46-.07.68-.11-.8.37-1.35,1.01-1.84,1.74-.33.51-.64,1.02-.97,1.52-.53.79-1.2,1.44-2.05,1.89-.04.02-.07.04-.11.05s-.06.03-.11.06c.04.02.06.03.09.04.85.38,1.52.98,2.06,1.7.36.49.67.99.99,1.5.33.52.68,1.03,1.13,1.46.27.26.58.47.92.64-.34-.09-.67-.16-1.01-.16-.62-.03-1.2.08-1.8.23-.62.14-1.23.29-1.86.4-.75.13-1.5.1-2.24-.07-.14-.04-.26-.08-.4-.11-.04-.02-.09-.04-.15-.05.03.11.07.21.1.31.27.85.3,1.72.14,2.59-.08.49-.2.98-.29,1.46-.14.66-.24,1.32-.18,1.99.02.34.1.67.22.98h-.02c-.29-.55-.73-.97-1.24-1.3-.43-.29-.89-.55-1.34-.81-.8-.45-1.56-.94-2.15-1.64-.27-.32-.5-.66-.7-1.03-.01-.03-.04-.06-.06-.11-.08.16-.16.29-.24.43-.33.57-.76,1.06-1.27,1.49-.46.39-.97.71-1.49,1.03-.46.3-.93.6-1.34.97-.37.33-.68.72-.92,1.18.01-.06.03-.12.05-.17.02-.07.03-.13.04-.19.11-.45.12-.9.07-1.36-.08-.63-.23-1.24-.38-1.86-.19-.81-.3-1.62-.23-2.45.04-.41.12-.81.25-1.19,0-.02.01-.03.01-.06-.03,0-.05,0-.06.01-1.07.37-2.15.41-3.25.14-.48-.12-.96-.24-1.44-.37-.67-.16-1.34-.28-2.03-.19-.19.03-.37.07-.56.11.81-.38,1.36-1.02,1.83-1.73.38-.56.74-1.14,1.12-1.69.55-.79,1.25-1.39,2.11-1.81.01-.01.03-.02.05-.03-.02-.02-.03-.03-.03-.03-1.06-.47-1.8-1.28-2.41-2.23-.32-.49-.62-.98-.94-1.47-.31-.48-.68-.91-1.15-1.25-.14-.1-.3-.19-.4-.26.21.04.47.09.73.12.57.06,1.13-.04,1.69-.17.57-.13,1.14-.29,1.7-.42.73-.17,1.48-.21,2.22-.07.25.04.5.13.74.19.04,0,.07.02.09.02-.07-.28-.15-.54-.21-.81-.17-.77-.15-1.54,0-2.32.11-.62.25-1.24.36-1.87.11-.61.15-1.24,0-1.85-.04-.17-.09-.32-.14-.48.09.13.17.27.27.39.3.41.68.72,1.1.99.41.26.82.49,1.24.72.86.48,1.68,1.03,2.27,1.83.2.27.36.56.53.84.01.03.03.06.06.1.07-.12.13-.24.2-.37.32-.58.75-1.07,1.25-1.5.47-.42,1.02-.75,1.54-1.09.5-.32,1-.64,1.43-1.07.3-.31.55-.64.74-1.02ZM431.67,226.52c0-.05-.03-.1-.05-.16-.43.27-.86.53-1.27.81-.61.42-1.1.94-1.49,1.57-.38.62-.61,1.28-.79,1.98-.16.69-.27,1.38-.34,2.07-.01.12-.02.25-.04.36-.03-.1-.04-.2-.05-.29-.14-1.07-.33-2.11-.68-3.13-.33-.94-.87-1.74-1.67-2.34-.38-.29-.79-.53-1.22-.76-.13-.07-.26-.15-.41-.22l-.04.09c-.08.33-.16.65-.24.97-.15.6-.22,1.21-.18,1.82.06.9.36,1.72.79,2.49.41.75.91,1.45,1.42,2.13.05.05.08.1.11.14-.44-.32-.88-.66-1.35-.97-.6-.41-1.22-.77-1.91-1.01-.85-.3-1.71-.38-2.59-.18-.53.12-1.05.28-1.58.42-.02,0-.02,0-.05.02.2.35.4.68.6,1.02.76,1.31,1.88,2.1,3.34,2.48.65.17,1.31.28,1.97.36.23.03.46.04.69.07-.17.04-.32.05-.48.08-.95.15-1.88.34-2.77.69-1.13.43-2.04,1.14-2.69,2.17-.22.37-.44.74-.66,1.12l-.08.14.05.02c.4.11.81.22,1.21.32.58.13,1.18.17,1.78.1.7-.1,1.36-.37,1.98-.7.78-.43,1.51-.96,2.21-1.51.11-.09.23-.18.34-.27h0s-.04.06-.06.08c-.07.1-.14.18-.21.28-.6.8-1.18,1.62-1.59,2.54-.32.69-.49,1.41-.5,2.18,0,.66.13,1.29.3,1.91.06.21.12.42.17.63.03-.01.06-.03.08-.04.33-.2.65-.39.98-.59,1.23-.77,2-1.87,2.39-3.26.19-.66.31-1.33.4-2.01.03-.24.06-.49.09-.76,0-.06.02-.11.02-.16.04.29.08.56.12.82.14.88.31,1.74.6,2.57.3.89.79,1.67,1.52,2.28.48.39,1.02.69,1.55.99l.26.13.02-.06c.09-.36.18-.73.26-1.09.13-.53.21-1.06.19-1.6-.03-.82-.28-1.59-.64-2.32-.41-.8-.92-1.54-1.47-2.26-.09-.11-.17-.23-.26-.34.04.02.07.05.1.07.76.6,1.56,1.18,2.44,1.62.75.38,1.54.6,2.38.63.62.02,1.22-.1,1.81-.25l.93-.25s-.03-.05-.04-.07c-.18-.29-.36-.58-.54-.88-.76-1.3-1.88-2.14-3.32-2.55-.72-.2-1.45-.34-2.19-.43-.23-.03-.46-.05-.69-.08.23-.04.44-.07.66-.11.84-.14,1.66-.31,2.46-.59,1.27-.43,2.25-1.21,2.93-2.38.2-.36.41-.72.62-1.07,0-.02,0-.04,0-.04-.02,0-.02-.02-.03-.02-.39-.1-.78-.2-1.18-.29-1.29-.31-2.52-.12-3.68.52-.71.39-1.38.84-2.02,1.33-.24.18-.48.36-.71.54,0-.01,0-.02,0-.02.5-.63.97-1.27,1.39-1.95.32-.53.59-1.08.76-1.66.21-.71.27-1.42.18-2.14-.07-.59-.25-1.16-.41-1.73Z"/><path class="cls-1" d="M431.62,226.35c.02.07.04.11.05.16.16.57.33,1.13.41,1.73.09.72.03,1.44-.18,2.14-.17.59-.44,1.14-.76,1.66-.42.68-.89,1.33-1.39,1.95l-.39-.19s.04-.07.05-.1c.2-.45.29-.93.36-1.41.11-.74.21-1.47.31-2.15-.09.15-.21.35-.34.53-.36.5-.72,1-1.07,1.5-.24.34-.44.71-.58,1.1l-.4-.13c.02-.12.03-.24.04-.36.07-.69.18-1.38.34-2.07.17-.69.41-1.36.79-1.98.39-.62.88-1.15,1.49-1.57.41-.28.84-.54,1.27-.81Z"/><path class="cls-1" d="M423.67,226.41c.14.08.27.15.41.22.42.23.84.46,1.22.76.8.6,1.34,1.4,1.67,2.34.35,1.02.54,2.06.68,3.13.01.09.02.19.05.29l.4.13c-.04.13-.08.25-.11.38-.11.48-.15.96-.14,1.45h-.35c.03-1.02-.17-1.97-.78-2.81-.34-.48-.69-.96-1.03-1.44-.16-.23-.3-.45-.47-.69.03.12.06.21.07.3.09.62.19,1.23.29,1.84.06.45.14.9.3,1.33.23.61.62,1.11,1.07,1.57l-.25.25c-.4-.39-.85-.72-1.36-.96l.21-.46s-.07-.09-.11-.14c-.52-.68-1.01-1.38-1.42-2.13-.43-.77-.74-1.59-.79-2.49-.04-.61.04-1.22.18-1.82.08-.32.15-.64.24-.97l.04-.09Z"/><path class="cls-1" d="M436.16,231.64c.39.09.79.19,1.18.29,0,0,.01.01.03.02,0,0,0,.03,0,.04-.21.35-.42.71-.62,1.07-.68,1.16-1.66,1.95-2.93,2.38-.8.28-1.62.45-2.46.59-.23.04-.44.07-.66.11l-.16.46c-.16-.06-.33-.11-.5-.15-.34-.08-.69-.11-1.03-.11v-.36c.91-.02,1.77-.25,2.51-.83.42-.31.84-.65,1.27-.96.29-.22.57-.43.85-.63-.12.03-.25.06-.38.09-.64.12-1.28.24-1.91.35-.43.08-.87.18-1.28.38-.55.25-1.01.62-1.42,1.05l-.25-.25c.39-.41.74-.86.98-1.38l.39.19s0,0,0,.02c.23-.18.47-.36.71-.54.64-.48,1.31-.94,2.02-1.33,1.16-.64,2.39-.83,3.68-.52Z"/><path class="cls-1" d="M429.74,230.68c.13-.18.25-.38.34-.53-.1.68-.2,1.41-.31,2.15-.07.48-.16.95-.36,1.41-.01.03-.03.07-.05.1-.24.52-.58.97-.98,1.38-.15.16-.32.31-.5.48,0-.03-.02-.05-.02-.07,0-.17-.02-.32-.02-.49-.01-.49.03-.97.14-1.45.03-.13.07-.26.11-.38.14-.39.34-.76.58-1.1.36-.5.72-1,1.07-1.5Z"/><path class="cls-1" d="M433.25,233.66c.12-.03.25-.06.38-.09-.28.2-.57.41-.85.63-.42.31-.84.65-1.27.96-.75.57-1.6.81-2.52.83-.27,0-.53,0-.81,0,0-.01,0-.02,0-.03l.28-.34c.05-.06.11-.12.18-.18.41-.43.87-.8,1.42-1.05.41-.2.85-.29,1.28-.38.64-.11,1.27-.23,1.91-.35Z"/><path class="cls-1" d="M425.28,230.47c-.01-.09-.04-.19-.07-.3.17.24.31.47.47.69.34.48.69.96,1.03,1.44.61.83.81,1.79.78,2.81,0,0,0,.02,0,.03,0,.17-.02.35-.02.52,0,0-.02,0-.03,0-.17-.15-.34-.3-.5-.46-.45-.46-.84-.97-1.07-1.57-.16-.43-.24-.88-.3-1.33-.1-.61-.19-1.22-.29-1.84Z"/><path class="cls-1" d="M422.29,232.06c.68.24,1.31.6,1.91,1.01.46.31.91.65,1.35.97l-.21.46c-.46-.21-.94-.29-1.43-.35-.58-.08-1.17-.18-1.75-.26-.12-.02-.23-.05-.33-.07.05.04.11.07.16.11.5.36,1.02.71,1.52,1.08.34.24.67.49,1.05.66.09.05.18.08.29.12l-.16.46c-.24-.03-.47-.05-.69-.07-.66-.08-1.32-.19-1.97-.36-1.46-.38-2.58-1.18-3.34-2.48-.2-.34-.39-.67-.6-1.02.02,0,.03-.02.05-.02.52-.14,1.04-.3,1.58-.42.88-.2,1.74-.12,2.59.18Z"/><path class="cls-1" d="M433.57,238.56s-.02,0-.03-.02c-.17-.11-.35-.2-.51-.32-.54-.38-1.08-.77-1.62-1.16-.28-.19-.57-.35-.88-.46l.16-.46c.23.03.46.05.69.08.74.09,1.47.22,2.19.43,1.44.41,2.56,1.25,3.32,2.55.17.3.36.59.54.88,0,.02.02.05.04.07l-.93.25c-.59.15-1.19.27-1.81.25-.85-.03-1.63-.25-2.38-.63-.88-.44-1.67-1.02-2.44-1.62-.04-.02-.06-.05-.1-.07.09.11.17.23.26.34.55.72,1.06,1.46,1.47,2.26.36.73.61,1.49.64,2.32.02.54-.06,1.07-.19,1.6-.08.36-.17.72-.26,1.09l-.02.06-.26-.13c-.53-.3-1.07-.6-1.55-.99-.73-.61-1.22-1.39-1.52-2.28-.29-.83-.46-1.7-.6-2.57-.04-.27-.08-.53-.12-.82,0,.06-.02.11-.02.16l-.47-.06c.06-.16.11-.31.15-.47.17-.65.2-1.31.15-1.98v-.14c-.21.19-.4.37-.57.54l-.24-.24c.18-.18.34-.37.49-.56l.02-.05c-.23,0-.47-.03-.69-.01v-.35c.23,0,.47-.02.72-.05-.13-.14-.24-.27-.35-.39l-.14-.14.25-.25c.16.16.33.31.5.46.01,0,.02,0,.03,0,0-.18.02-.35.02-.52,0,0,0-.02,0-.03h.35c0,.16.01.32.02.48,0,.02.01.04.02.07.17-.17.35-.32.5-.48l.25.25c-.06.06-.12.11-.18.18l-.28.34s0,.02,0,.03c.27,0,.54,0,.81,0v.36c-.25,0-.5.01-.75.04-.02,0-.04.01-.09.02.24.25.46.5.7.72.6.55,1.28.92,2.09,1.04.88.14,1.75.27,2.63.4ZM427.87,236.7c-.01.1-.01.18-.02.25-.05.57-.02,1.13.11,1.69.14.62.46,1.16.82,1.65.34.48.69.95,1.03,1.43.11.16.21.32.33.52-.03-.16-.06-.27-.09-.4-.1-.67-.21-1.33-.3-2-.11-.76-.37-1.45-.85-2.07-.31-.39-.64-.74-1.04-1.07Z"/><path class="cls-1" d="M430.53,236.6c.31.11.6.27.88.46.54.39,1.08.78,1.62,1.16.16.12.34.21.51.32.01.01.02.02.03.02-.88-.13-1.75-.26-2.63-.4-.81-.13-1.49-.5-2.09-1.04-.24-.22-.46-.47-.7-.72.05,0,.07-.02.09-.02.25-.02.5-.04.76-.04.34,0,.69.03,1.03.11.18.03.35.08.5.15Z"/><path class="cls-1" d="M423.9,234.15c.49.06.97.14,1.43.35.51.24.96.57,1.36.96l.14.14c.11.12.21.25.35.39-.25.03-.49.05-.72.05-.11,0-.22,0-.33,0-.45-.02-.89-.09-1.31-.25-.1-.03-.19-.07-.29-.12-.38-.17-.71-.42-1.05-.66-.5-.36-1.01-.72-1.52-1.08-.05-.04-.11-.07-.16-.11.1.02.22.05.33.07.58.08,1.17.18,1.75.26Z"/><path class="cls-1" d="M426.13,236.04c.11,0,.23,0,.33,0v.35c-.7.01-1.38.14-2.01.45-.41.21-.77.52-1.14.8-.47.35-.94.71-1.41,1.07-.05.04-.1.06-.15.1,0,0,0,0,0,.01.01,0,.03,0,.05,0,.2-.05.4-.1.61-.14.63-.12,1.25-.23,1.88-.34.48-.09.93-.24,1.34-.5.37-.23.7-.51,1-.81l.24.24c-.38.4-.71.84-.95,1.33-.02.06-.05.11-.07.16l-.37-.27s.04-.05.06-.07h0c-.11.08-.23.17-.34.26-.7.55-1.43,1.08-2.21,1.51-.62.34-1.27.61-1.98.7-.6.07-1.19.03-1.78-.1-.41-.1-.81-.21-1.21-.32l-.05-.02.08-.14c.22-.38.44-.76.66-1.12.65-1.03,1.55-1.74,2.69-2.17.89-.34,1.83-.54,2.77-.69.16-.03.31-.04.48-.08l.16-.46c.42.16.86.23,1.31.25Z"/><path class="cls-1" d="M427.15,236.41l-.02.05c-.15.19-.32.39-.49.56-.3.31-.63.58-1,.81-.42.25-.87.4-1.34.5-.63.12-1.25.23-1.88.34-.21.04-.41.09-.61.14-.02,0-.04,0-.05,0,0,0,0-.01,0-.01.05-.04.1-.06.15-.1.47-.35.94-.71,1.41-1.07.37-.28.73-.58,1.14-.8.63-.32,1.31-.44,2.01-.45.22-.01.46,0,.69.01Z"/><path class="cls-1" d="M427.85,236.95c0-.08,0-.15.02-.25.4.32.74.68,1.04,1.07.47.62.73,1.32.85,2.07.09.67.2,1.33.3,2,.03.12.05.24.09.4-.12-.19-.23-.36-.33-.52-.34-.47-.69-.95-1.03-1.43-.36-.5-.68-1.03-.82-1.65-.13-.56-.16-1.12-.11-1.69Z"/><path class="cls-1" d="M427.45,236.72v.14c.06.67.03,1.33-.14,1.98-.04.17-.09.32-.15.47-.13.32-.3.61-.51.9-.39.54-.77,1.07-1.15,1.61-.11.15-.2.3-.3.46.04-.2.08-.39.12-.59.09-.55.17-1.12.25-1.68.07-.42.14-.85.3-1.25.02-.05.05-.1.07-.16.24-.49.57-.93.95-1.33.18-.18.36-.35.56-.54Z"/><path class="cls-1" d="M425.5,238.48l.37.27c-.16.4-.24.83-.3,1.25-.08.56-.16,1.13-.25,1.68-.03.2-.07.39-.12.59.1-.16.19-.31.3-.46.38-.54.77-1.07,1.15-1.61.2-.29.38-.58.51-.9l.47.06c-.03.26-.05.51-.09.76-.09.68-.21,1.35-.4,2.01-.39,1.38-1.17,2.49-2.39,3.26-.33.2-.65.39-.98.59-.02,0-.05.03-.08.04-.06-.21-.12-.42-.17-.63-.17-.62-.3-1.25-.3-1.91.01-.77.18-1.49.5-2.18.41-.92.99-1.73,1.59-2.54.07-.1.14-.18.21-.28Z"/></svg>