<?xml version="1.0" encoding="UTF-8"?><svg id="icons" xmlns="http://www.w3.org/2000/svg" viewBox="0 0 239.63 60.99"><defs><style>.cls-1{opacity:.8;}.cls-2{fill-rule:evenodd;}.cls-2,.cls-3{fill:#00b7e2;stroke-width:0px;}</style></defs><path class="cls-3" d="M101.68,44.5c2.86,0,5.62-.95,8.11-2.76l3.07,4.19c-3.29,2.33-7.15,3.6-11.29,3.6-11.08,0-19.82-7.58-19.82-19.18,0-10.92,8.96-19.18,19.93-19.18,3.76,0,7.21,1.11,10.28,3.07l-2.7,4.35c-2.23-1.43-4.82-2.38-7.58-2.38-8.05,0-13.88,5.99-13.88,14.15,0,8.64,5.62,14.15,13.88,14.15Z"/><path class="cls-3" d="M124.04,26.27c1.59-2.81,3.97-4.82,6.78-4.82,1.17,0,2.07.11,3.07.37l-1.11,5.51c-.79-.42-1.54-.58-2.54-.58-2.6,0-4.61,1.54-6.09,4.13v18.02h-5.46v-26.81h5.19l.16,4.19Z"/><path class="cls-3" d="M149.32,44.92c3.55,0,6.15-1.33,7.79-4.24l3.82,2.49c-2.76,4.35-6.36,6.36-11.87,6.36-8.43,0-13.35-6.09-13.35-13.99s5.83-14.1,13.35-14.1,12.45,5.3,12.45,12.45c0,.95-.11,2.17-.26,2.97h-20.03c.37,4.4,3.34,8.05,8.11,8.05ZM149.16,26c-4.13,0-6.68,2.92-7.63,6.68h14.31c-.21-3.66-2.92-6.68-6.68-6.68Z"/><path class="cls-3" d="M183.93,48.89l-.16-2.7c-2.07,2.38-4.56,3.34-7.84,3.34-4.98,0-9.54-2.54-9.54-8.27,0-6.73,6.04-8.85,11.87-8.85,1.38,0,3.07.16,5.25.58v-.79c0-3.92-1.8-6.2-6.09-6.2-3.07,0-6.2,1.17-8.43,2.38l-1.54-4.4c2.92-1.38,7.05-2.54,10.81-2.54,7.68,0,10.71,4.24,10.71,11.18v16.27h-5.03ZM183.51,36.81c-1.86-.37-3.23-.48-4.56-.48-3.13,0-7.21.85-7.21,4.66,0,3.02,2.33,4.19,4.98,4.19s4.77-1.27,6.78-2.97v-5.41Z"/><path class="cls-3" d="M202.96,26.8v11.66c0,.69,0,1.32.05,2.12.16,2.54,1.01,4.03,3.39,4.03,1.17,0,2.17-.32,3.02-.74l1.59,4.29c-1.43.79-3.5,1.27-5.35,1.27-3.87,0-6.31-1.8-7.37-4.56-.58-1.48-.79-3.34-.79-5.3v-12.77h-3.5v-4.72h3.5l.26-6.31h5.19v6.31h7.37v4.72h-7.37Z"/><path class="cls-3" d="M227.44,44.92c3.55,0,6.15-1.33,7.79-4.24l3.82,2.49c-2.76,4.35-6.36,6.36-11.87,6.36-8.43,0-13.35-6.09-13.35-13.99s5.83-14.1,13.35-14.1,12.45,5.3,12.45,12.45c0,.95-.11,2.17-.26,2.97h-20.03c.37,4.4,3.34,8.05,8.11,8.05ZM227.28,26c-4.13,0-6.68,2.92-7.63,6.68h14.31c-.21-3.66-2.92-6.68-6.68-6.68Z"/><g class="cls-1"><path class="cls-2" d="M30,0C13.43,0,0,13.21,0,29.73s13.43,31.26,30,31.26c2.39,0,6.67-.38,7.21-3.56.71-4.2-3.05-5.32-5.13-7.51-3.4-3.58-1.6-9.17,4.33-9.17h14.44c2.69,0,9.25.55,9.16-10.67,0-16.51-13.43-30.07-30-30.07ZM12.75,39.5c-2.61,0-4.72-2.22-4.72-4.97s2.11-4.97,4.72-4.97,4.72,2.22,4.72,4.97-2.11,4.97-4.72,4.97ZM18.13,22.86c-2.61,0-4.72-2.22-4.72-4.97s2.11-4.97,4.72-4.97,4.72,2.22,4.72,4.97c0,2.74-2.11,4.97-4.72,4.97ZM35.21,18.53c-2.61,0-4.72-2.22-4.72-4.97s2.11-4.97,4.72-4.97,4.72,2.22,4.72,4.97c0,2.74-2.11,4.97-4.72,4.97ZM47.23,31.51c-2.61,0-4.72-2.22-4.72-4.97s2.11-4.97,4.72-4.97,4.72,2.22,4.72,4.97-2.11,4.97-4.72,4.97Z"/></g></svg>